<svg xmlns="http://www.w3.org/2000/svg" viewBox="0 0 149.359 35">
  <defs>
    <style>
      .cls-1 {
        fill: #232f47;
      }

      .cls-2 {
        fill: #f15a29;
      }

      .cls-3 {
        fill: #bcbec0;
      }

      .cls-4 {
        fill: #fbb040;
      }
    </style>
  </defs>
  <g id="Group_3" data-name="Group 3" transform="translate(-458 -690)">
    <g id="Group_2" data-name="Group 2" transform="translate(458 690)">
      <path id="Path_13" data-name="Path 13" class="cls-1" d="M47.11,45.3,34,54.04v8.74l13.11-8.74Z" transform="translate(-20.851 -27.781)"/>
      <path id="Path_14" data-name="Path 14" class="cls-2" d="M34,40.119l13.11-8.74V22.6L34,31.379Z" transform="translate(-20.851 -13.86)"/>
      <path id="Path_15" data-name="Path 15" class="cls-3" d="M0,54.04l13.149,8.74V54.04L0,45.3Z" transform="translate(0 -27.781)"/>
      <path id="Path_16" data-name="Path 16" class="cls-4" d="M0,0V8.74l13.149,8.779V8.74Z"/>
      <path id="Path_17" data-name="Path 17" class="cls-1" d="M252.221,26A4.989,4.989,0,0,0,247,31.066v9.552h3.171V31.066a1.882,1.882,0,0,1,2.05-1.934,1.8,1.8,0,0,1,2.05,1.934v9.552h3.171V31.066A4.938,4.938,0,0,0,252.221,26" transform="translate(-151.475 -15.945)"/>
      <path id="Path_18" data-name="Path 18" class="cls-1" d="M214.582,30.757a4.839,4.839,0,0,0-1.663.271c.425-.967,1.392-1.856,3.481-1.856V26h-.464c-3.249.155-6.536,2.127-6.536,7.232V40.58h3.171V35.862a1.882,1.882,0,0,1,2.05-1.934,1.8,1.8,0,0,1,2.05,1.934v4.757h3.171V35.862a5,5,0,0,0-5.26-5.1" transform="translate(-128.417 -15.945)"/>
      <path id="Path_19" data-name="Path 19" class="cls-1" d="M132.221,26A5.171,5.171,0,0,0,127,31.453v.735h3.171v-.735a2.127,2.127,0,0,1,2.088-2.32c2.011,0,2.088,2.282,2.088,2.32V35.32c0,2.514-1.508,2.514-2.088,2.514-1.7,0-2.05-1.354-2.05-2.514v-.657l-3.171-.039v.735c0,3.4,2.088,5.685,5.221,5.685,3.171,0,5.221-2.243,5.221-5.685V31.492A5.332,5.332,0,0,0,132.221,26" transform="translate(-77.884 -15.945)"/>
      <path id="Path_20" data-name="Path 20" class="cls-1" d="M332.419,32.956h-3.171v2.978c0,1.16-.348,2.514-2.088,2.514-.58,0-2.088,0-2.088-2.514V27H321.9v8.934c0,3.442,2.05,5.685,5.221,5.685,3.133,0,5.221-2.282,5.221-5.685.077-.271.077-2.978.077-2.978" transform="translate(-197.408 -16.558)"/>
      <path id="Path_21" data-name="Path 21" class="cls-1" d="M290.671,28.508h-1.2a5.171,5.171,0,0,0-5.221,5.453h3.171a2.127,2.127,0,0,1,2.088-2.32h1.2v4.293c0,2.514-1.508,2.514-2.088,2.514-1.7,0-2.05-1.354-2.05-2.514v-.58l-3.171-.077v.657c0,3.4,2.088,5.685,5.221,5.685,3.171,0,5.221-2.243,5.221-5.685V27h-3.171Z" transform="translate(-173.798 -16.558)"/>
      <path id="Path_22" data-name="Path 22" class="cls-1" d="M172.208,28.063V26.4h-3.171v1.663a6.663,6.663,0,0,0,1.586,13.188,6.663,6.663,0,0,0,1.586-13.188m-1.586,10.055a3.662,3.662,0,0,1-3.751-3.519,3.546,3.546,0,0,1,2.166-3.21v3.867h3.171V31.389a3.546,3.546,0,0,1,2.166,3.21,3.662,3.662,0,0,1-3.751,3.519" transform="translate(-100.391 -16.19)"/>
      <path id="Path_23" data-name="Path 23" class="cls-1" d="M93.521,26A5.983,5.983,0,0,0,89,27.934l2.2,2.243a2.807,2.807,0,0,1,2.32-1.044c.619,0,1.972,0,2.05,2.088A5.21,5.21,0,0,0,88.3,35.9a5.222,5.222,0,0,0,10.442,0V31.453c0-3.326-2.05-5.453-5.221-5.453m0,11.873a1.939,1.939,0,1,1,2.088-1.934,2.027,2.027,0,0,1-2.088,1.934" transform="translate(-54.151 -15.945)"/>
      <path id="Path_24" data-name="Path 24" class="cls-1" d="M364.421,26a4.989,4.989,0,0,0-5.221,5.066v9.552h3.171V31.066a1.882,1.882,0,0,1,2.05-1.934,1.8,1.8,0,0,1,2.05,1.934v9.552h3.171V31.066A4.938,4.938,0,0,0,364.421,26" transform="translate(-220.283 -15.945)"/>
    </g>
  </g>
</svg>
