<svg xmlns="http://www.w3.org/2000/svg" width="16.597" height="16.602" viewBox="0 0 16.597 16.602">
  <path id="Icon_ionic-ios-settings" data-name="Icon ionic-ios-settings" d="M19.727,12.8a2.136,2.136,0,0,1,1.37-1.993,8.466,8.466,0,0,0-1.024-2.468,2.164,2.164,0,0,1-.869.186,2.131,2.131,0,0,1-1.949-3A8.44,8.44,0,0,0,14.791,4.5a2.134,2.134,0,0,1-3.985,0A8.466,8.466,0,0,0,8.338,5.524a2.131,2.131,0,0,1-1.949,3,2.094,2.094,0,0,1-.869-.186A8.653,8.653,0,0,0,4.5,10.81a2.135,2.135,0,0,1,0,3.985,8.466,8.466,0,0,0,1.024,2.468,2.132,2.132,0,0,1,2.814,2.814A8.515,8.515,0,0,0,10.81,21.1a2.13,2.13,0,0,1,3.976,0,8.466,8.466,0,0,0,2.468-1.024,2.134,2.134,0,0,1,2.814-2.814A8.515,8.515,0,0,0,21.093,14.8,2.146,2.146,0,0,1,19.727,12.8Zm-6.89,3.453A3.458,3.458,0,1,1,16.3,12.794,3.457,3.457,0,0,1,12.838,16.252Z" transform="translate(-4.5 -4.5)" fill="#fbb040"/>
</svg>
