<svg xmlns="http://www.w3.org/2000/svg" width="14.617" height="15.351"><g fill="#fff" data-name="Cog Wheel"><path d="M13.525 11.148a7.064 7.064 0 0 0-4.01-9.492l-.434 1.175a5.815 5.815 0 0 1 3.374 7.642l-1.158-.736.316 3.17 3-1.057Z" data-name="Path 24"/><path d="M10.497 12.977a5.8 5.8 0 0 1-7.89-.964l1.128-.637L.79 10.164l-.48 3.149 1.193-.678a7.062 7.062 0 0 0 9.735 1.349Z" data-name="Path 25"/><path d="m5.885 0 .01 1.317A7.05 7.05 0 0 0 .075 9.3l1.24-.178a5.813 5.813 0 0 1 4.591-6.535l.011 1.349 2.488-1.988Z" data-name="Path 26"/><path d="M9.791 8.285a2.693 2.693 0 0 0-.047-.49l.647-.374a3.4 3.4 0 0 0-.893-1.55l-.648.374a2.678 2.678 0 0 0-.848-.489v-.748a3.309 3.309 0 0 0-1.789 0v.748a2.678 2.678 0 0 0-.848.489l-.648-.374a3.4 3.4 0 0 0-.893 1.55l.647.374a2.585 2.585 0 0 0 0 .979l-.647.374a3.4 3.4 0 0 0 .893 1.55l.648-.374a2.678 2.678 0 0 0 .848.489v.748a3.309 3.309 0 0 0 1.789 0v-.748a2.678 2.678 0 0 0 .848-.489l.648.374a3.4 3.4 0 0 0 .893-1.55l-.647-.374a2.72 2.72 0 0 0 .047-.489ZM7.109 9.537a1.252 1.252 0 1 1 1.252-1.252 1.252 1.252 0 0 1-1.252 1.252Z" data-name="Path 27"/></g></svg>