<svg xmlns="http://www.w3.org/2000/svg" width="14.617" height="15.351" viewBox="0 0 14.617 15.351">
  <g id="Cog_Wheel" data-name="Cog Wheel" transform="translate(3.825 4.886)">
    <path id="Path_24" data-name="Path 24" d="M38.583,15.475a7.064,7.064,0,0,0-4.01-9.492l-.434,1.175A5.815,5.815,0,0,1,37.513,14.8l-1.158-.736.316,3.17,3-1.057Z" transform="translate(-28.883 -9.213)" fill="#fff"/>
    <path id="Path_25" data-name="Path 25" d="M12.632,39.542a5.8,5.8,0,0,1-7.89-.964l1.128-.637L2.925,36.729l-.48,3.149L3.638,39.2a7.062,7.062,0,0,0,9.735,1.349Z" transform="translate(-5.96 -31.451)" fill="#fff"/>
    <path id="Path_26" data-name="Path 26" d="M7.21,0l.01,1.317A7.05,7.05,0,0,0,1.4,9.3L2.64,9.122A5.813,5.813,0,0,1,7.231,2.587l.011,1.349L9.73,1.948Z" transform="translate(-5.15 -4.886)" fill="#fff"/>
    <path id="Path_27" data-name="Path 27" d="M21.112,21.055a2.693,2.693,0,0,0-.047-.49l.647-.374a3.4,3.4,0,0,0-.893-1.55l-.648.374a2.678,2.678,0,0,0-.848-.489v-.748a3.309,3.309,0,0,0-1.789,0v.748a2.678,2.678,0,0,0-.848.489l-.648-.374a3.4,3.4,0,0,0-.893,1.55l.647.374a2.585,2.585,0,0,0,0,.979l-.647.374a3.4,3.4,0,0,0,.893,1.55l.648-.374a2.678,2.678,0,0,0,.848.489v.748a3.309,3.309,0,0,0,1.789,0v-.748a2.678,2.678,0,0,0,.848-.489l.648.374a3.4,3.4,0,0,0,.893-1.55l-.647-.374A2.72,2.72,0,0,0,21.112,21.055ZM18.43,22.307a1.252,1.252,0,1,1,1.252-1.252A1.252,1.252,0,0,1,18.43,22.307Z" transform="translate(-15.146 -17.656)" fill="#fff"/>
  </g>
</svg>
