<svg xmlns="http://www.w3.org/2000/svg" width="15" height="15"><path fill="#fff" d="M7.505 3.654A3.846 3.846 0 1 0 11.35 7.5a3.839 3.839 0 0 0-3.845-3.846Zm0 6.346a2.5 2.5 0 1 1 2.5-2.5 2.5 2.5 0 0 1-2.5 2.5Zm4.9-6.5a.9.9 0 1 1-.9-.9.895.895 0 0 1 .9.897Zm2.547.91a4.44 4.44 0 0 0-1.216-3.148 4.467 4.467 0 0 0-3.143-1.21c-1.238-.07-4.949-.07-6.187 0a4.46 4.46 0 0 0-3.142 1.21A4.454 4.454 0 0 0 .052 4.404c-.07 1.238-.07 4.95 0 6.189a4.44 4.44 0 0 0 1.211 3.143 4.472 4.472 0 0 0 3.142 1.211c1.238.07 4.949.07 6.187 0a4.438 4.438 0 0 0 3.142-1.212 4.469 4.469 0 0 0 1.211-3.143c.07-1.238.07-4.947 0-6.185Zm-1.6 7.514a2.531 2.531 0 0 1-1.426 1.426 16.524 16.524 0 0 1-4.421.3 16.653 16.653 0 0 1-4.421-.3 2.531 2.531 0 0 1-1.429-1.429 16.535 16.535 0 0 1-.3-4.422 16.664 16.664 0 0 1 .3-4.422 2.531 2.531 0 0 1 1.426-1.425 16.524 16.524 0 0 1 4.421-.3 16.653 16.653 0 0 1 4.421.3 2.531 2.531 0 0 1 1.426 1.426 16.535 16.535 0 0 1 .3 4.422 16.525 16.525 0 0 1-.302 4.421Z"/></svg>