<svg xmlns="http://www.w3.org/2000/svg" width="25" height="25" viewBox="0 0 25 25">
  <path id="color-wheel_1_" data-name="color-wheel (1)" d="M21.338,3.661A12.5,12.5,0,0,0,3.661,21.339,12.5,12.5,0,0,0,21.338,3.661ZM12.5,15.674A3.174,3.174,0,1,1,15.673,12.5,3.178,3.178,0,0,1,12.5,15.674Zm4.874-13.08L14.155,8.167a4.636,4.636,0,0,0-3.312,0L7.626,2.594a11.084,11.084,0,0,1,9.747,0ZM4.7,4.7A11.146,11.146,0,0,1,6.358,3.328L9.576,8.9a4.64,4.64,0,0,0-1.657,2.866H1.489A10.952,10.952,0,0,1,4.7,4.7ZM1.489,13.232h6.43A4.64,4.64,0,0,0,9.576,16.1L6.358,21.672A11.158,11.158,0,0,1,4.7,20.3a10.953,10.953,0,0,1-3.207-7.071Zm6.137,9.174,3.218-5.573a4.636,4.636,0,0,0,3.312,0l3.218,5.573a11.084,11.084,0,0,1-9.747,0ZM20.3,20.3a11.146,11.146,0,0,1-1.662,1.369L15.423,16.1a4.64,4.64,0,0,0,1.657-2.866h6.43A10.952,10.952,0,0,1,20.3,20.3Zm0,0" transform="translate(0)" fill="#fbfbfb"/>
</svg>
