<svg id="couch" xmlns="http://www.w3.org/2000/svg" width="39.867" height="22.277" viewBox="0 0 39.867 22.277">
  <path id="Path_14" data-name="Path 14" d="M37.591,195.779l2.4-.179,2.032.825.366,1.2.28,3.73-.833,3.379-1.152,1.55-1.612.662H7L4.3,205.427l-.9-2.538.413-6.642,2.725-.646,2.671.6.14,1.2.28,2.6v1.09l.265,1.215H36.571l.047-5Z" transform="translate(-3.135 -189.161)" fill="rgba(255,255,255,0.5)"/>
  <g id="Group_27" data-name="Group 27" transform="translate(0 0)">
    <g id="Group_26" data-name="Group 26">
      <path id="Path_15" data-name="Path 15" d="M37.889,119H37.1v-2.943a3.16,3.16,0,0,0-3.154-3.154H22.5a3.152,3.152,0,0,0-2.57,1.331,3.163,3.163,0,0,0-2.57-1.331H10.177a.584.584,0,1,0,0,1.168h7.187a1.989,1.989,0,0,1,1.986,1.986v5.84a.137.137,0,0,0-.039-.031,3.813,3.813,0,0,0-2.577-1.02H7.008a2.007,2.007,0,0,0-1.324-1.736A2.047,2.047,0,0,0,5.038,119H3.932v-2.943a1.989,1.989,0,0,1,1.986-1.986H7.833a.584.584,0,0,0,0-1.168H5.926a3.16,3.16,0,0,0-3.154,3.154V119H1.978A1.981,1.981,0,0,0,0,120.975v6.1a4.117,4.117,0,0,0,4.111,4.111h.3L3.769,132.9a1.7,1.7,0,0,0,1.581,2.274h.942a1.693,1.693,0,0,0,1.347-.67l2.515-3.325h19.56l2.515,3.325a1.693,1.693,0,0,0,1.347.67h.942A1.7,1.7,0,0,0,36.1,132.9l-.639-1.721h.3a4.117,4.117,0,0,0,4.111-4.111v-6.1A1.981,1.981,0,0,0,37.889,119Zm-17.372-2.943a1.989,1.989,0,0,1,1.986-1.986H33.942a1.989,1.989,0,0,1,1.986,1.986V119h-1.1a2.021,2.021,0,0,0-1.822,1.215,1.962,1.962,0,0,0-.148.631H23.134a3.837,3.837,0,0,0-2.616,1.051v-5.84ZM7.008,122.01h9.725a2.622,2.622,0,0,1,2.616,2.616v.833H7.008Zm-.3,11.8a.528.528,0,0,1-.413.21H5.349a.525.525,0,0,1-.491-.7l.794-2.126H8.69Zm27.814.2h-.942a.506.506,0,0,1-.413-.21l-1.986-2.624h3.037s.786,2.118.794,2.126A.533.533,0,0,1,34.518,134.017Zm1.238-3.995H4.111a2.946,2.946,0,0,1-2.943-2.943v-6.1a.814.814,0,0,1,.81-.81h3.06a.814.814,0,0,1,.81.81v5.069a.588.588,0,0,0,.584.584H27.876a.584.584,0,0,0,0-1.168H20.518v-.833a2.622,2.622,0,0,1,2.616-2.616h9.725v3.442H30.212a.584.584,0,0,0,0,1.168h3.224a.588.588,0,0,0,.584-.584v-5.069a.814.814,0,0,1,.81-.81h3.06a.814.814,0,0,1,.81.81v6.1h0A2.953,2.953,0,0,1,35.756,130.023Z" transform="translate(0 -112.9)" fill="#fff"/>
    </g>
  </g>
</svg>
