<svg xmlns="http://www.w3.org/2000/svg" width="14.75" height="10.212" viewBox="0 0 14.75 10.212">
  <g id="Icon_ionic-ios-mail" data-name="Icon ionic-ios-mail" transform="translate(-3.375 -7.875)">
    <path id="Path_36" data-name="Path 36" d="M18,10.336l-3.815,3.886a.069.069,0,0,0,0,.1l2.67,2.844a.46.46,0,0,1,0,.652.462.462,0,0,1-.652,0l-2.659-2.833a.073.073,0,0,0-.1,0l-.649.659a2.855,2.855,0,0,1-2.035.858,2.912,2.912,0,0,1-2.078-.883l-.624-.635a.073.073,0,0,0-.1,0L5.3,17.817a.462.462,0,0,1-.652,0,.46.46,0,0,1,0-.652l2.67-2.844a.075.075,0,0,0,0-.1L3.5,10.336a.07.07,0,0,0-.121.05v7.776A1.138,1.138,0,0,0,4.51,19.3H16.99a1.138,1.138,0,0,0,1.135-1.135V10.385A.071.071,0,0,0,18,10.336Z" transform="translate(0 -1.209)" fill="#fff"/>
    <path id="Path_37" data-name="Path 37" d="M11.172,14.367a1.928,1.928,0,0,0,1.386-.581l5.563-5.662a1.114,1.114,0,0,0-.7-.248H4.928a1.107,1.107,0,0,0-.7.248l5.563,5.662A1.928,1.928,0,0,0,11.172,14.367Z" transform="translate(-0.422)" fill="#fff"/>
  </g>
</svg>
