<svg xmlns="http://www.w3.org/2000/svg" width="19.87" height="29.488" viewBox="0 0 19.87 29.488">
  <g id="man" transform="translate(-83.6)">
    <path id="Path_38" data-name="Path 38" d="M169.92,13.65l1.417-.639,2.275-.386L176.5,11.7l1.4.616.478,1.048.818.282.282-.973-.795-2.891L177,7.816,173.854,7.2l-2.793,1.307L169.5,11.946Z" transform="translate(-80.953 -6.785)" fill="rgba(255,255,255,0.5)"/>
    <path id="Path_39" data-name="Path 39" d="M219.711,324.6l1.624.1,1.158,7.683-1.808,2.327-2.384-2.177Z" transform="translate(-126.942 -305.905)" fill="rgba(255,255,255,0.5)"/>
    <g id="Group_80" data-name="Group 80" transform="translate(83.6)">
      <g id="Group_79" data-name="Group 79">
        <path id="Path_40" data-name="Path 40" d="M103.038,23.89a.435.435,0,0,0-.432.432v4.06a.237.237,0,0,1-.236.236h-2.321v-8.5a.432.432,0,1,0-.864,0v8.506H94.508l1.353-1.492a.757.757,0,0,0,.184-.622V26.5l-1.29-7.631.346-.524a.966.966,0,0,0,.616.271.757.757,0,0,0,.68-.42h0l1.359-2.73,3.1,1.2a3,3,0,0,1,1.745,2.718v2.92a.432.432,0,0,0,.864,0v-2.92a3.851,3.851,0,0,0-2.281-3.519.006.006,0,0,1-.006-.006l-5.166-2V12.653a4.066,4.066,0,0,0,1.532-2.661,1.889,1.889,0,0,0,1.1-.449,1.832,1.832,0,0,0,.2-2.586v-1.6a5.356,5.356,0,1,0-10.712,0V7a1.742,1.742,0,0,0-.443,1.158,1.811,1.811,0,0,0,.639,1.388,1.889,1.889,0,0,0,1.1.449,4.005,4.005,0,0,0,1.618,2.724v1.146l-5.16,2a.006.006,0,0,0-.006.006A3.861,3.861,0,0,0,83.6,19.386v9a1.1,1.1,0,0,0,1.1,1.1h4.106a.432.432,0,1,0,0-.864h-.927v-8.5a.432.432,0,0,0-.864,0v8.506H84.694a.237.237,0,0,1-.236-.236v-9A2.986,2.986,0,0,1,86.2,16.667l3.1-1.2,1.365,2.73a.768.768,0,0,0,.68.42.95.95,0,0,0,.616-.271l.346.524L91.012,26.5v.012a.8.8,0,0,0,.184.622l1.353,1.492H90.822a.432.432,0,0,0,0,.864h11.542a1.1,1.1,0,0,0,1.1-1.1v-4.06A.428.428,0,0,0,103.038,23.89ZM96.95,15.153,95.683,17.7c-.029-.023-.7-.5-1.526-1.083.357-.443-.063.075,1.567-1.935Zm-2.557,2.69-.328.5H92.988l-.328-.5.87-.616ZM91.9,14v-.806a4.365,4.365,0,0,0,1.636.311,4.129,4.129,0,0,0,1.618-.334v.841l-1.624,2Zm6.52-5.851a.975.975,0,0,1-.334.737,1,1,0,0,1-.5.23V7.188A.98.98,0,0,1,98.419,8.149Zm-9.036.968a.975.975,0,0,1-.835-.962,1.031,1.031,0,0,1,.835-.945Zm.023-2.788a2.3,2.3,0,0,0-.415.092V5.356a4.492,4.492,0,1,1,8.985,0V6.393a1.746,1.746,0,0,0-.392-.075c0-.415.006-.334-1.359-1.8a.764.764,0,0,0-.979-.121,8.314,8.314,0,0,1-5.034,1.353A.779.779,0,0,0,89.405,6.329Zm.841,3.127V6.617a9.2,9.2,0,0,0,5.4-1.457c.628.674.962,1.025,1.071,1.158V9.451a3.234,3.234,0,0,1-6.468.006ZM91.375,17.7l-1.267-2.546,1.227-.472L92.9,16.616C92.107,17.18,91.45,17.646,91.375,17.7Zm.5,8.892L93.12,19.2h.812l1.25,7.389-1.653,1.82Z" transform="translate(-83.6)" fill="#fff"/>
      </g>
    </g>
  </g>
</svg>
