<svg xmlns="http://www.w3.org/2000/svg" width="14.625" height="13" viewBox="0 0 14.625 13">
  <path id="Icon_awesome-shopping-cart" data-name="Icon awesome-shopping-cart" d="M13.409,7.651l1.2-5.281a.609.609,0,0,0-.594-.744H4.042L3.81.487A.609.609,0,0,0,3.213,0H.609A.609.609,0,0,0,0,.609v.406a.609.609,0,0,0,.609.609H2.384l1.784,8.72a1.422,1.422,0,1,0,1.7.217h5.323a1.422,1.422,0,1,0,1.615-.264l.14-.616a.609.609,0,0,0-.594-.744H5.538l-.166-.812h7.443A.609.609,0,0,0,13.409,7.651Z" fill="#fff"/>
</svg>
