<svg id="paint-brush_1_" data-name="paint-brush (1)" xmlns="http://www.w3.org/2000/svg" width="25" height="25" viewBox="0 0 25 25">
  <path id="Path_20" data-name="Path 20" d="M20.692,13.3l1.619,1.568,2.421.539,2.482.958,1.41,1.941-.654,1.346-2.829,2.8-1.813-.1-1.88-1.881L20.1,16.739l.138-2.839Z" transform="translate(-18.926 -12.522)" fill="rgba(255,255,255,0.5)"/>
  <path id="Path_21" data-name="Path 21" d="M433.8,20.366l3.439-1.666-1.526,3.421Z" transform="translate(-413.388 -17.605)" fill="rgba(255,255,255,0.5)"/>
  <g id="Group_33" data-name="Group 33" transform="translate(0 0)">
    <g id="Group_32" data-name="Group 32">
      <path id="Path_22" data-name="Path 22" d="M21.76,7.577a.378.378,0,0,0,.093-.137l3.2-6.679A.489.489,0,0,0,24.4.108L17.707,3.3a.673.673,0,0,0-.137.093l-6.041,6.03-.8-.8.059-.059a1.009,1.009,0,0,0,.3-.7.891.891,0,0,0-.254-.625L9.7,6.113a1.88,1.88,0,0,0-.181-1.4c-.733-1.372-2.96-2.285-4.835-2.583A3.735,3.735,0,0,1,2.405.649c-.327-.381-.61-.713-1.04-.586C.916.2.808.718.71,1.44a9.215,9.215,0,0,0,.347,4.365c.674,2.109,2.344,4.287,4.474,4.287h.044l1.192,1.191a.871.871,0,0,0,.625.254h0a1.016,1.016,0,0,0,.7-.293l.059-.059.806.8-6.5,6.484,0,0v0L.706,20.227a2.074,2.074,0,0,0,0,2.929L1.951,24.4a2.088,2.088,0,0,0,2.94,0l8.254-8.236,6.325,6.308.015.015.015.015,2.007,2a1.814,1.814,0,1,0,2.569-2.563l-3.809-3.8a.487.487,0,1,0-.689.688l1.441,1.435-1.187,1.186L8.847,10.5,10.034,9.31l1.138,1.138.01.01s.01,0,.01.01L12.92,12.2l0,0s0,0,.01,0l1.739,1.733,0,0a0,0,0,0,1,0,0l1.783,1.782a.5.5,0,0,0,.694,0,.486.486,0,0,0,0-.688L15.719,13.6,21.76,7.577ZM10.708,13.734,4.549,19.871l-1.06-1.055,6.159-6.142ZM4.2,23.708a1.1,1.1,0,0,1-1.558,0l-1.25-1.245a1.1,1.1,0,0,1-.322-.776,1.077,1.077,0,0,1,.322-.776L2.8,19.5l2.808,2.8Zm2.1-2.094-1.06-1.055L11.4,14.417l1.055,1.055Zm15.409-.659,1.675,1.67a.841.841,0,1,1-1.192,1.186l-1.67-1.67ZM1.985,5.512a8.366,8.366,0,0,1-.308-3.935c.015-.088.024-.166.034-.234A4.584,4.584,0,0,0,4.525,3.1c1.88.3,3.653,1.191,4.127,2.075a.883.883,0,0,1,.063.786L5.55,9.115C3.968,9.13,2.566,7.348,1.985,5.512ZM6.459,9.6,9.135,6.933l.952.952-2.276,2.27h0l-.4.4ZM20.017,5.146l0,0s0,0-.01,0l-1.25-1.25,2.056-.981,1.446,1.44L21.272,6.4ZM22.7,3.413l-.957-.957,1.831-.874Zm-4.781,1.02,1.055,1.055-5.695,5.678-1.06-1.055ZM13.97,11.859l5.695-5.683,1.06,1.055-5.7,5.683Z" transform="translate(-0.1 -0.036)" fill="#fff"/>
      <path id="Path_23" data-name="Path 23" d="M364.409,336.2a.593.593,0,0,0-.264.786V337a.582.582,0,0,0,.522.323.548.548,0,0,0,.264-.065.593.593,0,0,0,.264-.786.586.586,0,0,0-.786-.264Z" transform="translate(-346.454 -319.867)" fill="#fff"/>
    </g>
  </g>
</svg>
