<svg xmlns="http://www.w3.org/2000/svg" width="25" height="25" viewBox="0 0 25 25">
  <g id="paint" transform="translate(-0.001 -0.5)">
    <path id="Path_99" data-name="Path 99" d="M15.671.765a5.323,5.323,0,0,0-4.742.628l-.006-.033-3.755.71A6.691,6.691,0,0,0,1.63,7.82,6.433,6.433,0,0,0,1.838,10.2l-.64.636C.039,12-.293,13.807.265,15.927a13.268,13.268,0,0,0,3.522,5.787,13.263,13.263,0,0,0,5.786,3.523,5.155,5.155,0,0,0,5.084-.931l3.211-3.16v.643a3.65,3.65,0,0,0,4.215,3.661A3.7,3.7,0,0,0,25,21.632V12.087a11.009,11.009,0,0,0-3.539-7.8A13.265,13.265,0,0,0,15.671.765ZM3.087,7.96A5.223,5.223,0,0,1,7.441,3.509l1.407-.266-5.76,5.72a5.1,5.1,0,0,1,0-1Zm10.541,15.3,0,0c-1.684,1.684-5.715.5-8.8-2.589a11.793,11.793,0,0,1-3.141-5.124c-.42-1.6-.224-2.9.551-3.677l.228-.227a6.217,6.217,0,0,0,5,3.035,2.2,2.2,0,1,0,.008-1.467,4.741,4.741,0,0,1-3.921-2.644l5.845-5.8a7.2,7.2,0,0,0,.263,1.947,13.3,13.3,0,0,0,3.521,5.711l4.046,4.046a2.219,2.219,0,0,1,.65,1.556v1.061ZM9.013,13.445a.732.732,0,1,1,0,1.036A.732.732,0,0,1,9.013,13.445ZM20.049,9.1a23.282,23.282,0,0,0-3.537,0,8.29,8.29,0,0,0-3.48.949s-.531-.713-.687-.949c-1.6-2.362-2.041-5.047-.725-6.364,1.684-1.684,5.715-.5,8.8,2.589A11.166,11.166,0,0,1,23.2,9.77,11.776,11.776,0,0,0,20.049,9.1Z" fill="#fbfbfb"/>
  </g>
</svg>
