<svg id="paint-roller" xmlns="http://www.w3.org/2000/svg" width="25" height="26.316" viewBox="0 0 25 26.316">
  <path id="Path_16" data-name="Path 16" d="M186.2,291.6h5.921l-.408,1.856-.724.678-.178,1.392.27,5.5-1.086,1.362-2.254-.286-.6-2.162.209-1.362,3.234.015-.015-2.581-3.081-.153-.168-1.678-.8-.632Z" transform="translate(-177.264 -276.52)" fill="rgba(255,255,255,0.5)"/>
  <g id="Group_30" data-name="Group 30" transform="translate(0)">
    <g id="Group_29" data-name="Group 29">
      <g id="Group_28" data-name="Group 28">
        <path id="Path_17" data-name="Path 17" d="M35.61,3.11V1.316A1.319,1.319,0,0,0,34.294,0H15.869a1.319,1.319,0,0,0-1.316,1.316h-.884a.871.871,0,0,0-.869.869V4.832a.871.871,0,0,0,.869.869h.884a1.319,1.319,0,0,0,1.316,1.316V9.649A1.753,1.753,0,0,0,18.5,11.166v.673a1.753,1.753,0,1,0,3.506,0v-1.9a1.563,1.563,0,0,0,.658.149A1.538,1.538,0,0,0,24.2,8.549V7.012H34.294A1.319,1.319,0,0,0,35.61,5.7V4a1.76,1.76,0,0,1,1.316,1.7V7.459a1.81,1.81,0,0,1-1.4,1.763c-.339.062-5.933.555-9.572.869A1.754,1.754,0,0,0,24.2,11.839v2.637H21.57a.429.429,0,0,0-.339.159.447.447,0,0,0-.093.365l.36,1.8a.929.929,0,0,0,.9.74.041.041,0,0,1,.041.041v6.462a2.246,2.246,0,0,0,1.979,2.257c.072.005.139.01.211.01a2.2,2.2,0,0,0,2.2-2.2V17.577a.041.041,0,0,1,.041-.041.929.929,0,0,0,.9-.74l.36-1.8a.447.447,0,0,0-.093-.365.429.429,0,0,0-.339-.159H25.076V11.829a.877.877,0,0,1,.915-.874c1.553-.134,9.315-.8,9.706-.884a2.665,2.665,0,0,0,2.1-2.622V5.7A2.62,2.62,0,0,0,35.61,3.11ZM13.679,4.832l-.01-2.642h.884V4.827ZM34.736,5.7a.437.437,0,0,1-.437.437H23.765a.437.437,0,0,0-.437.437V8.549a.658.658,0,1,1-1.316,0,.437.437,0,0,0-.874,0v3.29a.879.879,0,1,1-1.758,0v-2.2a.437.437,0,0,0-.874,0,.879.879,0,1,1-1.758,0V6.58a.437.437,0,0,0-.437-.437h-.437a.437.437,0,0,1-.437-.437v-4.4a.437.437,0,0,1,.437-.437H34.3a.437.437,0,0,1,.437.437V5.7ZM25.961,21.494H23.328V19.741h2.632ZM25.529,25.1a1.29,1.29,0,0,1-1.018.334,1.37,1.37,0,0,1-1.188-1.383V22.373h2.632v1.753A1.312,1.312,0,0,1,25.529,25.1Zm1.393-8.467a.044.044,0,0,1-.041.036.919.919,0,0,0-.92.92v1.275H23.328V17.592a.919.919,0,0,0-.92-.92.04.04,0,0,1-.041-.036l-.257-1.28h5.074Z" transform="translate(-12.8)" fill="#fff"/>
        <path id="Path_18" data-name="Path 18" d="M124.234,76.8a.433.433,0,0,0-.434.434v3.045a.434.434,0,1,0,.867,0V77.234A.433.433,0,0,0,124.234,76.8Z" transform="translate(-118.092 -72.846)" fill="#fff"/>
        <path id="Path_19" data-name="Path 19" d="M175.434,42.7a.433.433,0,0,0-.434.434v3.045a.434.434,0,1,0,.867,0V43.134A.433.433,0,0,0,175.434,42.7Z" transform="translate(-166.659 -40.522)" fill="#fff"/>
      </g>
    </g>
  </g>
</svg>
