<svg xmlns="http://www.w3.org/2000/svg" width="24" height="24" viewBox="0 0 24 24">
  <g id="phone-call" transform="translate(0 -0.001)">
    <g id="Group_110" data-name="Group 110" transform="translate(0 0.001)">
      <g id="Group_109" data-name="Group 109" transform="translate(0)">
        <path id="Path_96" data-name="Path 96" d="M249.05,23.192h.053a9.538,9.538,0,0,1,9.557,9.6,1.051,1.051,0,0,0,1.046,1.056h.005a1.051,1.051,0,0,0,1.051-1.046A11.64,11.64,0,0,0,249.1,21.09h-.058a1.051,1.051,0,0,0,0,2.1Z" transform="translate(-237.87 -19.982)" fill="#fbfbfb"/>
        <path id="Path_97" data-name="Path 97" d="M24,19.339A3.55,3.55,0,0,0,22.909,16.9a8.719,8.719,0,0,0-3.452-2.294,3.864,3.864,0,0,0-3.968,1.126l-.005.005L14.215,17a18.876,18.876,0,0,1-4-3.092l-.123-.123a18.994,18.994,0,0,1-3.091-4L8.264,8.517l.005-.005A3.864,3.864,0,0,0,9.395,4.544,8.719,8.719,0,0,0,7.1,1.092,3.567,3.567,0,0,0,2.15.913L2.123.938,2.087.972A7.606,7.606,0,0,0,0,6.544C.02,10.4,2.138,14.806,5.667,18.334l.009.009a22.878,22.878,0,0,0,2.239,1.948c.411.315,1.552-1.173,1.141-1.488a20.963,20.963,0,0,1-2.063-1.8L6.984,17C3.8,13.814,1.892,9.9,1.875,6.534A5.791,5.791,0,0,1,3.4,2.315L3.4,2.309a1.686,1.686,0,0,1,2.349.085C8.179,4.91,8,6.1,6.93,7.2L5.193,8.95A.938.938,0,0,0,5,9.991a18.943,18.943,0,0,0,3.769,5.116l.123.123A18.942,18.942,0,0,0,14.01,19a.937.937,0,0,0,1.042-.191L16.8,17.071c1.1-1.073,2.288-1.249,4.806,1.179a1.686,1.686,0,0,1,.085,2.349l-.007.007a5.775,5.775,0,0,1-4.177,1.52h-.043a12.156,12.156,0,0,1-4.626-1.1,16.941,16.941,0,0,1-1.918-.952,20.231,20.231,0,0,1-1.867-1.271L7.914,20.292s1.041.75,2.086,1.365,2.1,1.1,2.1,1.1A13.831,13.831,0,0,0,17.457,24h.053a7.59,7.59,0,0,0,5.519-2.086l.035-.037.024-.027A3.55,3.55,0,0,0,24,19.339Z" transform="translate(0 -0.001)" fill="#fbfbfb"/>
        <path id="Path_98" data-name="Path 98" d="M296.242,113.544a5.775,5.775,0,0,0-2.729-1.57,1.051,1.051,0,0,0-.56,2.025,3.675,3.675,0,0,1,1.8,1.031,3.755,3.755,0,0,1,1.02,1.77l.015.051a1.051,1.051,0,1,0,2.015-.6l-.014-.048A5.783,5.783,0,0,0,296.242,113.544Z" transform="translate(-278.928 -106.858)" fill="#fbfbfb"/>
      </g>
    </g>
  </g>
</svg>
