<svg xmlns="http://www.w3.org/2000/svg" width="17.875" height="17.875" viewBox="0 0 17.875 17.875">
  <path id="Icon_awesome-question-circle" data-name="Icon awesome-question-circle" d="M18.438,9.5A8.938,8.938,0,1,1,9.5.563,8.937,8.937,0,0,1,18.438,9.5ZM9.74,3.518a4.668,4.668,0,0,0-4.2,2.3.433.433,0,0,0,.1.586l1.25.948a.432.432,0,0,0,.6-.076c.644-.817,1.085-1.29,2.065-1.29.736,0,1.647.474,1.647,1.188,0,.54-.446.817-1.172,1.224-.848.475-1.97,1.067-1.97,2.546v.144a.432.432,0,0,0,.432.432h2.018a.432.432,0,0,0,.432-.432v-.048c0-1.026,3-1.068,3-3.844C13.939,5.1,11.771,3.518,9.74,3.518ZM9.5,12.455a1.658,1.658,0,1,0,1.658,1.658A1.66,1.66,0,0,0,9.5,12.455Z" transform="translate(-0.563 -0.563)" fill="#232f47"/>
</svg>
