<svg id="user" xmlns="http://www.w3.org/2000/svg" width="11.712" height="14.038" viewBox="0 0 11.712 14.038">
  <path id="Path_34" data-name="Path 34" d="M90.413,6.762A3.272,3.272,0,0,0,92.8,5.772a3.271,3.271,0,0,0,.99-2.391A3.272,3.272,0,0,0,92.8.991a3.38,3.38,0,0,0-4.781,0,3.272,3.272,0,0,0-.991,2.39,3.271,3.271,0,0,0,.991,2.391A3.272,3.272,0,0,0,90.413,6.762Zm0,0" transform="translate(-84.645 0)" fill="#fff"/>
  <path id="Path_35" data-name="Path 35" d="M11.683,251.33a8.352,8.352,0,0,0-.114-.887,6.99,6.99,0,0,0-.218-.892,4.406,4.406,0,0,0-.367-.832,3.139,3.139,0,0,0-.553-.72,2.437,2.437,0,0,0-.794-.5,2.745,2.745,0,0,0-1.014-.184,1.029,1.029,0,0,0-.55.233c-.165.107-.357.232-.572.369a3.281,3.281,0,0,1-.741.326,2.877,2.877,0,0,1-1.812,0,3.273,3.273,0,0,1-.74-.326c-.213-.136-.406-.26-.573-.369a1.027,1.027,0,0,0-.549-.233,2.741,2.741,0,0,0-1.014.184,2.435,2.435,0,0,0-.794.5,3.141,3.141,0,0,0-.553.72,4.414,4.414,0,0,0-.367.832,7.005,7.005,0,0,0-.218.892,8.325,8.325,0,0,0-.114.887c-.019.269-.028.547-.028.829a2.331,2.331,0,0,0,.692,1.764,2.492,2.492,0,0,0,1.784.651H9.235a2.492,2.492,0,0,0,1.784-.651,2.33,2.33,0,0,0,.692-1.764c0-.283-.01-.562-.028-.829Zm0,0" transform="translate(0 -240.535)" fill="#fff"/>
</svg>
