<svg xmlns="http://www.w3.org/2000/svg" width="30.038" height="30.031" viewBox="0 0 30.038 30.031">
  <g id="wrench" transform="translate(0.016 0.019)">
    <path id="Path_4" data-name="Path 4" d="M245.391,244.9l.786.622.622,1.15-.739.939.587,1.015,1.537-.516,6.911,6.881-.217,3.391-1.244,1.015-1.959.417-2.839-1.355-4.277-4.2-.991-1.379.229-1.566-.516-.733-1.355.839-1.824-1.59Z" transform="translate(-226.03 -230.551)" fill="rgba(255,255,255,0.5)"/>
    <g id="Group_11" data-name="Group 11" transform="translate(17.772 11.068)">
      <g id="Group_10" data-name="Group 10">
        <path id="Path_5" data-name="Path 5" d="M304.356,189.446a.411.411,0,0,0-.035-.111c-.018-.035-.035-.07-.053-.1a.577.577,0,0,0-.07-.088.516.516,0,0,0-.088-.07.326.326,0,0,0-.1-.053.619.619,0,0,0-.111-.035.5.5,0,0,0-.229,0,.409.409,0,0,0-.111.035c-.035.018-.07.035-.1.053s-.065.047-.088.07a.463.463,0,0,0-.07.088.326.326,0,0,0-.053.1c-.012.035-.023.07-.035.111a.719.719,0,0,0-.012.111.8.8,0,0,0,.012.117.411.411,0,0,0,.035.111c.018.035.035.07.053.1a.577.577,0,0,0,.07.088.465.465,0,0,0,.088.07.327.327,0,0,0,.1.053.618.618,0,0,0,.111.035.72.72,0,0,0,.117.012.792.792,0,0,0,.117-.012.409.409,0,0,0,.111-.035c.035-.018.07-.035.1-.053s.065-.047.088-.07a.465.465,0,0,0,.07-.088.327.327,0,0,0,.053-.1c.012-.035.023-.07.035-.111a.72.72,0,0,0,.012-.117C304.367,189.522,304.361,189.481,304.356,189.446Z" transform="translate(-303.2 -188.975)" fill="#fff"/>
      </g>
    </g>
    <g id="Group_13" data-name="Group 13" transform="translate(20.03 20.026)">
      <g id="Group_12" data-name="Group 12">
        <path id="Path_6" data-name="Path 6" d="M342.862,342.146a.41.41,0,0,0-.035-.111c-.018-.035-.035-.07-.053-.1a.547.547,0,0,0-.076-.088.92.92,0,0,0-.088-.07.325.325,0,0,0-.1-.053.618.618,0,0,0-.111-.035.5.5,0,0,0-.229,0,.408.408,0,0,0-.111.035c-.035.018-.07.035-.1.053s-.065.047-.088.07a.514.514,0,0,0-.07.088.326.326,0,0,0-.053.1.618.618,0,0,0-.035.111.4.4,0,0,0-.012.117.8.8,0,0,0,.012.117.409.409,0,0,0,.035.111c.018.035.035.07.053.1s.047.065.07.088.059.053.088.076a.325.325,0,0,0,.1.053.623.623,0,0,0,.111.035.719.719,0,0,0,.111.012.8.8,0,0,0,.117-.012.409.409,0,0,0,.111-.035c.035-.018.07-.035.1-.053a.551.551,0,0,0,.088-.076c.023-.029.053-.059.076-.088a.327.327,0,0,0,.053-.1.626.626,0,0,0,.035-.111.595.595,0,0,0,0-.235Z" transform="translate(-341.7 -341.675)" fill="#fff"/>
      </g>
    </g>
    <g id="Group_15" data-name="Group 15" transform="translate(-0.016 -0.019)">
      <g id="Group_14" data-name="Group 14" transform="translate(0 0)">
        <path id="Path_7" data-name="Path 7" d="M22.805,17.024a.579.579,0,0,0-.628-.129l-1.214.481L20.588,17l.68-.68a.584.584,0,0,0,0-.827l-1.349-1.349,2.276-2.276a6.134,6.134,0,0,0,1.754.258A6.071,6.071,0,0,0,29.8,4.44a.579.579,0,0,0-.417-.411.589.589,0,0,0-.563.153L26.231,6.775l-2.446-.557-.557-2.446L25.82,1.179a.589.589,0,0,0,.153-.563A.6.6,0,0,0,25.562.2a6.078,6.078,0,0,0-7.427,7.614l-3.79,3.79L6.362,3.613l.188-.188a.576.576,0,0,0,.164-.5.6.6,0,0,0-.293-.434L2.12.105a.578.578,0,0,0-.7.1L.208,1.419a.587.587,0,0,0-.1.7L2.5,6.417a.577.577,0,0,0,.434.293.387.387,0,0,0,.082.006.591.591,0,0,0,.417-.17l.188-.188,7.99,7.99-3.79,3.79A6.082,6.082,0,0,0,.2,25.559a.579.579,0,0,0,.417.411.589.589,0,0,0,.563-.153l2.411-2.411,3,3L4.179,28.815a.589.589,0,0,0-.153.563.6.6,0,0,0,.411.417,6,6,0,0,0,1.607.217,6.079,6.079,0,0,0,5.819-7.832l2.27-2.27,1.349,1.349a.581.581,0,0,0,.417.17.606.606,0,0,0,.417-.17l.68-.68.375.375-.481,1.214a.579.579,0,0,0,.129.628l5.972,5.972A4.082,4.082,0,1,0,28.765,23ZM20.488,2.587a4.918,4.918,0,0,1,3.467-1.431c.076,0,.153,0,.223.006L22.166,3.173a.6.6,0,0,0-.158.546l.71,3.121a.581.581,0,0,0,.44.44l3.121.71a.584.584,0,0,0,.546-.158l2.012-2.012a4.906,4.906,0,0,1-4.893,5.133,4.907,4.907,0,0,1-4.9-4.9A4.9,4.9,0,0,1,20.488,2.587ZM3.153,5.168l-1.8-3.232.587-.587,3.232,1.8Zm1.291.364L5.535,4.44l7.99,7.99-1.085,1.085ZM9.518,27.413a4.928,4.928,0,0,1-3.7,1.431l2.012-2.012A.581.581,0,0,0,8,26.416.606.606,0,0,0,7.834,26L4,22.168a.584.584,0,0,0-.827,0L1.164,24.181a4.9,4.9,0,1,1,8.354,3.232Zm1.86-6.394a6.217,6.217,0,0,0-.634-.933l6.424-6.424a.585.585,0,0,0-.827-.827L9.911,19.259a6.217,6.217,0,0,0-.933-.634l9.65-9.65a6.225,6.225,0,0,0,1.027,1.367,6,6,0,0,0,1.367,1.027Zm16.942,6.465-5.6-5.6a.585.585,0,0,0-.827.827l5.6,5.6a2.91,2.91,0,0,1-3.661-.375l-5.7-5.7.481-1.214a.579.579,0,0,0-.129-.628L17.42,19.329a.581.581,0,0,0-.417-.17.606.606,0,0,0-.417.17l-.68.68-.933-.933,4.118-4.118.933.933-.686.692a.584.584,0,0,0,0,.827L20.4,18.473a.579.579,0,0,0,.628.129l1.214-.481,5.7,5.7a2.883,2.883,0,0,1,.851,2.059A2.836,2.836,0,0,1,28.319,27.483Z" transform="translate(0.016 0.019)" fill="#fff"/>
      </g>
    </g>
  </g>
</svg>
