<?xml version="1.0" encoding="utf-8"?>
<!-- Generator: Adobe Illustrator 16.0.0, SVG Export Plug-In . SVG Version: 6.00 Build 0)  -->
<!DOCTYPE svg PUBLIC "-//W3C//DTD SVG 1.1//EN" "http://www.w3.org/Graphics/SVG/1.1/DTD/svg11.dtd">
<svg version="1.1" id="Capa_1" xmlns="http://www.w3.org/2000/svg" xmlns:xlink="http://www.w3.org/1999/xlink" x="0px" y="0px"
	 width="50px" height="50px" viewBox="0 0 50 50" enable-background="new 0 0 50 50" xml:space="preserve">
<g>
	
		<rect fill-rule="evenodd" clip-rule="evenodd" fill="#FFFFFF" stroke="#FEFEFE" stroke-width="0.227" stroke-miterlimit="10" width="50" height="50"/>
	<polygon fill-rule="evenodd" clip-rule="evenodd" fill="#FF0000" points="20.243,0 20.243,20.242 0,20.242 0,29.728 20.243,29.728 
		20.243,50 29.728,50 29.728,29.728 50,29.728 50,20.242 29.728,20.242 29.728,0 	"/>
	<path fill-rule="evenodd" clip-rule="evenodd" fill="#FF0000" d="M7.91,16.455c0.727-0.092,1.454-0.121,2.211-0.121
		s1.515,0.029,2.243,0.121c-0.304-1.515-0.485-3.061-0.575-4.667c1.605,0.092,3.151,0.273,4.666,0.575
		c-0.09-0.726-0.121-1.484-0.121-2.242c0-0.757,0.031-1.485,0.121-2.212c-1.515,0.272-3.06,0.455-4.666,0.545
		c0.09-1.576,0.271-3.151,0.575-4.667c-0.728,0.091-1.485,0.151-2.243,0.151S8.637,3.879,7.91,3.788
		c0.272,1.515,0.454,3.091,0.545,4.667C6.88,8.364,5.304,8.182,3.789,7.909C3.879,8.636,3.94,9.364,3.94,10.121
		c0,0.758-0.061,1.516-0.151,2.242c1.515-0.302,3.091-0.483,4.667-0.575C8.364,13.395,8.182,14.94,7.91,16.455L7.91,16.455z"/>
	<path fill-rule="evenodd" clip-rule="evenodd" fill="#FF0000" d="M37.637,16.455c0.728-0.092,1.485-0.121,2.243-0.121
		c0.728,0,1.483,0.029,2.211,0.121c-0.303-1.515-0.484-3.061-0.545-4.667c1.575,0.092,3.121,0.273,4.667,0.575
		c-0.091-0.726-0.151-1.484-0.151-2.242c0-0.757,0.061-1.485,0.151-2.212c-1.546,0.272-3.092,0.455-4.667,0.545
		c0.061-1.576,0.242-3.151,0.545-4.667c-0.728,0.091-1.483,0.151-2.211,0.151c-0.758,0-1.516-0.061-2.243-0.151
		c0.303,1.515,0.485,3.091,0.546,4.667c-1.576-0.091-3.122-0.273-4.667-0.545c0.091,0.727,0.152,1.455,0.152,2.212
		c0,0.758-0.062,1.516-0.152,2.242c1.545-0.302,3.091-0.483,4.667-0.575C38.122,13.395,37.939,14.94,37.637,16.455L37.637,16.455z"
		/>
	<path fill-rule="evenodd" clip-rule="evenodd" fill="#FF0000" d="M37.637,46.212c0.728-0.092,1.485-0.151,2.243-0.151
		c0.728,0,1.483,0.06,2.211,0.151c-0.303-1.545-0.484-3.091-0.545-4.667c1.575,0.061,3.121,0.242,4.667,0.546
		c-0.091-0.728-0.151-1.484-0.151-2.212c0-0.758,0.061-1.515,0.151-2.242c-1.546,0.302-3.092,0.483-4.667,0.544
		c0.061-1.574,0.242-3.12,0.545-4.665c-0.728,0.09-1.483,0.152-2.211,0.152c-0.758,0-1.516-0.063-2.243-0.152
		c0.303,1.545,0.485,3.091,0.546,4.665c-1.576-0.061-3.122-0.242-4.667-0.544c0.091,0.728,0.152,1.484,0.152,2.242
		c0,0.728-0.062,1.484-0.152,2.212c1.545-0.304,3.091-0.485,4.667-0.546C38.122,43.121,37.939,44.667,37.637,46.212L37.637,46.212z"
		/>
	<path fill-rule="evenodd" clip-rule="evenodd" fill="#FF0000" d="M7.91,46.212c0.727-0.092,1.454-0.151,2.211-0.151
		s1.515,0.06,2.243,0.151c-0.304-1.545-0.485-3.091-0.575-4.667c1.605,0.061,3.151,0.242,4.666,0.546
		c-0.09-0.728-0.121-1.484-0.121-2.212c0-0.758,0.031-1.515,0.121-2.242c-1.515,0.302-3.06,0.483-4.666,0.544
		c0.09-1.574,0.271-3.12,0.575-4.665c-0.728,0.09-1.485,0.152-2.243,0.152s-1.484-0.063-2.211-0.152
		c0.272,1.545,0.454,3.091,0.545,4.665c-1.576-0.061-3.152-0.242-4.667-0.544c0.091,0.728,0.151,1.484,0.151,2.242
		c0,0.728-0.061,1.484-0.151,2.212c1.515-0.304,3.091-0.485,4.667-0.546C8.364,43.121,8.182,44.667,7.91,46.212L7.91,46.212z"/>
</g>
</svg>
