<?xml version="1.0" encoding="utf-8"?>
<!-- Generator: Adobe Illustrator 16.0.0, SVG Export Plug-In . SVG Version: 6.00 Build 0)  -->
<!DOCTYPE svg PUBLIC "-//W3C//DTD SVG 1.1//EN" "http://www.w3.org/Graphics/SVG/1.1/DTD/svg11.dtd">
<svg version="1.1" id="Layer_1" xmlns="http://www.w3.org/2000/svg" xmlns:xlink="http://www.w3.org/1999/xlink" x="0px" y="0px"
	 width="34px" height="34px" viewBox="0 0 34 34" enable-background="new 0 0 34 34" xml:space="preserve">
<g>
	<path fill="#4267B2" d="M33.204,6.202c0-2.838-2.58-5.392-5.415-5.392H6.211c-2.835,0-5.387,2.554-5.387,5.392v21.596
		c0,2.838,2.552,5.42,5.387,5.42h10.804V20.959h-3.97v-5.392h3.97v-2.1c0-3.632,2.721-6.896,6.067-6.896h4.366v5.392h-4.366
		c-0.482,0-1.049,0.596-1.049,1.447v2.157h5.415v5.392h-5.415v12.259h5.756c2.835,0,5.415-2.582,5.415-5.42V6.202z"/>
</g>
</svg>
