<?xml version="1.0" encoding="utf-8"?>
<!-- Generator: Adobe Illustrator 16.0.0, SVG Export Plug-In . SVG Version: 6.00 Build 0)  -->
<!DOCTYPE svg PUBLIC "-//W3C//DTD SVG 1.1//EN" "http://www.w3.org/Graphics/SVG/1.1/DTD/svg11.dtd">
<svg version="1.1" id="Layer_1" xmlns="http://www.w3.org/2000/svg" xmlns:xlink="http://www.w3.org/1999/xlink" x="0px" y="0px"
	 width="145px" height="66px" viewBox="0 0 145 66" enable-background="new 0 0 145 66" xml:space="preserve">
<g>
	<path d="M61.102,42.648V11.518c0-1.164-0.482-2.213-1.219-2.951c-0.709-0.709-1.645-1.135-2.666-1.135h-0.454
		c-1.021,0-1.985,0.426-2.665,1.135c-0.766,0.738-1.219,1.788-1.219,2.951v31.131h-7.826V11.518c0-3.122,1.305-5.988,3.375-8.06
		c2.126-2.128,5.075-3.462,8.336-3.462h0.454c3.232,0,6.182,1.333,8.308,3.462c2.098,2.072,3.374,4.938,3.374,8.06v31.131H61.102z"
		/>
	<path d="M120.93,34.731h12.277c1.021,0,1.984-0.426,2.665-1.107c0.766-0.766,1.22-1.788,1.22-2.951V11.518
		c0-1.164-0.454-2.213-1.22-2.951c-0.681-0.709-1.645-1.135-2.665-1.135h-0.454c-1.021,0-1.956,0.426-2.665,1.135
		c-0.737,0.738-1.191,1.788-1.191,2.951v6.839h-7.825v-6.839c0-3.122,1.275-5.988,3.374-8.06c2.127-2.128,5.075-3.462,8.308-3.462
		h0.454c3.261,0,6.209,1.333,8.336,3.462c2.07,2.072,3.374,4.938,3.374,8.06v19.155c0,3.122-1.304,5.96-3.374,8.06
		c-2.127,2.128-5.075,3.434-8.336,3.434H120.93V34.731z"/>
	<path d="M106.979,7.431H87.84c-1.049,0-1.985,0.426-2.693,1.135c-0.737,0.738-1.191,1.788-1.191,2.951v7.123h19.849
		c3.232,0,6.011,1.135,8.023,3.15c1.929,1.93,3.063,4.625,3.063,7.747v13.111h-7.825V29.538c0-1.163-0.341-2.071-0.908-2.639
		c-0.51-0.539-1.332-0.823-2.353-0.823h-4.82v10.529h-7.798V26.076h-7.23v16.573h-7.826V11.518c0-3.122,1.305-5.988,3.375-8.06
		c2.126-2.128,5.075-3.462,8.336-3.462h19.139V7.431z"/>
	<path d="M27.898,23.294h0.425c1.049,0,1.985-0.425,2.694-1.135c0.737-0.738,1.191-1.788,1.191-2.952v-7.69
		c0-1.164-0.454-2.213-1.191-2.951c-0.709-0.709-1.645-1.135-2.694-1.135h-0.425c-1.049,0-1.985,0.426-2.694,1.135
		c-0.737,0.738-1.19,1.788-1.19,2.951v7.69c0,1.164,0.454,2.213,1.19,2.952C25.914,22.869,26.85,23.294,27.898,23.294L27.898,23.294
		z M31.386,42.166H11.821c-3.261,0-6.209-1.306-8.336-3.434c-2.07-2.1-3.374-4.938-3.374-8.06V11.518
		c0-3.122,1.304-5.988,3.374-8.06c2.126-2.128,5.075-3.462,8.336-3.462h0.426c3.005,0,5.756,1.135,7.826,2.979
		c2.07-1.845,4.82-2.979,7.826-2.979h0.425c3.261,0,6.209,1.333,8.336,3.462c2.07,2.072,3.374,4.938,3.374,8.06v7.69
		c0,3.122-1.304,5.988-3.374,8.06c-2.127,2.128-5.076,3.462-8.336,3.462h-0.425c-3.261,0-6.209-1.333-8.336-3.462
		c-2.07-2.072-3.375-4.938-3.375-8.06v-0.851h-0.057v-6.839c0-1.164-0.454-2.213-1.191-2.951c-0.709-0.709-1.645-1.135-2.693-1.135
		h-0.426c-1.049,0-1.984,0.426-2.693,1.135c-0.737,0.738-1.191,1.788-1.191,2.951v19.155c0,1.164,0.454,2.185,1.191,2.951
		c0.709,0.682,1.645,1.107,2.693,1.107h19.565V42.166z"/>
	<path d="M5.782,65.834L3.003,55.249h1.474l1.56,6.952c0.199,0.71,0.34,1.447,0.454,2.157c0.284-1.136,0.454-1.788,0.511-1.958
		l1.984-7.151h1.702l1.502,5.363c0.369,1.334,0.652,2.582,0.822,3.746c0.142-0.653,0.34-1.419,0.539-2.299l1.673-6.811h1.389
		l-2.892,10.585H12.36l-2.212-8.06c-0.198-0.682-0.312-1.078-0.34-1.249c-0.142,0.482-0.227,0.908-0.34,1.249l-2.212,8.06H5.782z
		 M23.617,65.834l-2.779-10.585h1.446l1.588,6.952c0.17,0.71,0.312,1.447,0.454,2.157c0.284-1.136,0.454-1.788,0.482-1.958
		l2.013-7.151h1.673l1.531,5.363c0.369,1.334,0.652,2.582,0.822,3.746c0.142-0.653,0.312-1.419,0.539-2.299l1.645-6.811h1.417
		l-2.892,10.585h-1.361l-2.24-8.06c-0.17-0.682-0.283-1.078-0.34-1.249c-0.113,0.482-0.227,0.908-0.312,1.249l-2.212,8.06H23.617z
		 M41.452,65.834l-2.807-10.585h1.474l1.588,6.952c0.17,0.71,0.312,1.447,0.454,2.157c0.255-1.136,0.425-1.788,0.482-1.958
		l1.985-7.151h1.702l1.502,5.363c0.369,1.334,0.652,2.582,0.822,3.746c0.142-0.653,0.34-1.419,0.539-2.299l1.673-6.811h1.389
		l-2.892,10.585h-1.361l-2.212-8.06c-0.198-0.682-0.312-1.078-0.34-1.249c-0.113,0.482-0.227,0.908-0.34,1.249l-2.211,8.06H41.452z
		 M55.657,65.834v-1.476h1.475v1.476H55.657z M62.236,65.834V55.249h3.658c0.822,0,1.446,0.057,1.871,0.17
		c0.624,0.142,1.134,0.369,1.56,0.738c0.567,0.482,0.964,1.078,1.248,1.815c0.284,0.738,0.425,1.59,0.425,2.526
		c0,0.794-0.113,1.504-0.283,2.128c-0.199,0.624-0.425,1.135-0.737,1.532c-0.284,0.426-0.596,0.738-0.964,0.965
		c-0.34,0.228-0.765,0.426-1.248,0.539c-0.51,0.114-1.077,0.171-1.701,0.171H62.236z M63.653,64.613h2.24
		c0.708,0,1.248-0.085,1.645-0.198c0.397-0.142,0.709-0.313,0.964-0.567c0.312-0.313,0.567-0.767,0.766-1.334
		c0.17-0.567,0.284-1.249,0.284-2.043c0-1.107-0.199-1.959-0.567-2.555c-0.34-0.596-0.794-0.993-1.304-1.191
		c-0.369-0.143-0.992-0.228-1.814-0.228h-2.212V64.613z M77.037,65.834V55.249h1.389v10.585H77.037z M84.806,65.834V55.249h4.679
		c0.964,0,1.673,0.113,2.155,0.283c0.481,0.199,0.879,0.539,1.19,1.021c0.283,0.482,0.426,0.993,0.426,1.59
		c0,0.737-0.256,1.391-0.737,1.901c-0.482,0.511-1.22,0.851-2.24,0.965c0.368,0.198,0.652,0.368,0.851,0.539
		c0.396,0.369,0.794,0.852,1.162,1.419l1.815,2.866h-1.73l-1.417-2.186c-0.397-0.652-0.737-1.135-0.992-1.476
		c-0.284-0.341-0.511-0.567-0.709-0.709c-0.228-0.114-0.426-0.228-0.652-0.284c-0.142-0.028-0.426-0.028-0.766-0.028h-1.616v4.683
		H84.806z M86.224,59.931h2.978c0.651,0,1.162-0.057,1.502-0.198c0.369-0.142,0.652-0.341,0.822-0.652
		c0.199-0.284,0.284-0.597,0.284-0.937c0-0.511-0.17-0.908-0.539-1.249c-0.368-0.313-0.936-0.482-1.729-0.482h-3.317V59.931z
		 M99.352,65.834V55.249h7.627v1.248h-6.209v3.264h5.813v1.221h-5.813v3.632h6.465v1.221H99.352z M112.083,65.834v-1.476h1.475
		v1.476H112.083z M123.623,61.69v-1.249h4.48v3.917c-0.681,0.567-1.39,0.965-2.127,1.248c-0.737,0.284-1.475,0.426-2.24,0.426
		c-1.049,0-1.984-0.227-2.835-0.681s-1.503-1.078-1.929-1.93c-0.425-0.852-0.652-1.788-0.652-2.81c0-1.05,0.228-2.015,0.652-2.895
		c0.426-0.88,1.05-1.561,1.844-1.986c0.822-0.426,1.758-0.653,2.807-0.653c0.766,0,1.446,0.113,2.07,0.369
		c0.623,0.256,1.105,0.596,1.445,1.05c0.369,0.426,0.624,1.021,0.794,1.731l-1.247,0.341c-0.17-0.54-0.369-0.965-0.596-1.277
		s-0.567-0.539-1.021-0.738c-0.426-0.17-0.907-0.283-1.446-0.283c-0.624,0-1.19,0.113-1.645,0.312
		c-0.482,0.171-0.851,0.426-1.134,0.767c-0.284,0.313-0.511,0.652-0.681,1.05c-0.256,0.653-0.397,1.362-0.397,2.129
		c0,0.937,0.17,1.73,0.482,2.384c0.34,0.624,0.794,1.106,1.418,1.391c0.623,0.312,1.275,0.482,1.984,0.482
		c0.596,0,1.19-0.114,1.758-0.369c0.596-0.228,1.021-0.482,1.333-0.738V61.69H123.623z M134.086,65.834V55.249h7.627v1.248h-6.237
		v3.264h5.841v1.221h-5.841v3.632h6.493v1.221H134.086z"/>
</g>
</svg>
