<?xml version="1.0" encoding="utf-8"?>
<!-- Generator: Adobe Illustrator 16.0.0, SVG Export Plug-In . SVG Version: 6.00 Build 0)  -->
<!DOCTYPE svg PUBLIC "-//W3C//DTD SVG 1.1//EN" "http://www.w3.org/Graphics/SVG/1.1/DTD/svg11.dtd">
<svg version="1.1" id="Layer_1" xmlns="http://www.w3.org/2000/svg" xmlns:xlink="http://www.w3.org/1999/xlink" x="0px" y="0px"
	 width="70px" height="70px" viewBox="0 0 70 70" enable-background="new 0 0 70 70" xml:space="preserve">
<g>
	<path fill-rule="evenodd" clip-rule="evenodd" d="M65.829,6.665H4.17c-1.782,0-3.235,1.455-3.235,3.238v42.723
		c0,1.784,1.453,3.238,3.235,3.238h39.507v6.009c0,0.521,0.273,0.96,0.712,1.234s0.96,0.302,1.426,0.083l4.798-2.36l4.799,2.36
		c0.465,0.219,0.986,0.191,1.425-0.083s0.686-0.713,0.686-1.234v-6.009h8.307c1.782,0,3.235-1.454,3.235-3.238V9.902
		C69.064,8.119,67.611,6.665,65.829,6.665L65.829,6.665z M4.088,9.381h61.824c0.246,0,0.438,0.192,0.438,0.439v42.887
		c0,0.247-0.191,0.439-0.438,0.439h-8.39v-4.034l0.219-0.219c2.029-1.949,3.181-4.609,3.181-7.436
		c0-5.681-4.633-10.317-10.309-10.317c-5.702,0-10.309,4.637-10.309,10.317c0,2.826,1.125,5.486,3.181,7.436l0.192,0.219v4.034
		H4.088c-0.247,0-0.438-0.192-0.438-0.439V9.82C3.65,9.573,3.842,9.381,4.088,9.381L4.088,9.381z M50.613,57.838l-4.222,2.03v-8.944
		l0.904,0.302c1.07,0.356,2.193,0.549,3.317,0.549s2.221-0.192,3.29-0.549l0.905-0.302v8.944L50.613,57.838z M50.613,49.058
		c-4.194,0-7.621-3.401-7.621-7.6c0-4.199,3.427-7.601,7.621-7.601c4.195,0,7.595,3.402,7.595,7.601
		C58.208,45.656,54.809,49.058,50.613,49.058L50.613,49.058z M16.672,17.476c-0.713,0-1.316-0.576-1.316-1.29
		c0-0.713,0.603-1.317,1.316-1.317h36.656c0.74,0,1.315,0.604,1.315,1.317c0,0.714-0.575,1.29-1.315,1.29H16.672z M10.229,25.625
		c-0.713,0-1.288-0.576-1.288-1.289s0.575-1.29,1.288-1.29h49.541c0.713,0,1.289,0.577,1.289,1.29s-0.576,1.289-1.289,1.289H10.229z
		 M9.928,39.481c-0.713,0-1.289-0.576-1.289-1.29c0-0.713,0.576-1.289,1.289-1.289H26.68c0.713,0,1.288,0.576,1.288,1.289
		c0,0.714-0.575,1.29-1.288,1.29H9.928z M9.928,47.631c-0.713,0-1.289-0.576-1.289-1.29c0-0.713,0.576-1.289,1.289-1.289H26.68
		c0.713,0,1.288,0.576,1.288,1.289c0,0.714-0.575,1.29-1.288,1.29H9.928z"/>
</g>
</svg>
