<svg xmlns="http://www.w3.org/2000/svg" width="10.496" height="7" viewBox="0 0 10.496 7">
  <path id="Icon_ionic-ios-arrow-round-forward" data-name="Icon ionic-ios-arrow-round-forward" d="M14.568,11.386a.476.476,0,0,0,0,.671l2.217,2.22H8.345a.474.474,0,0,0,0,.948h8.432l-2.217,2.22a.48.48,0,0,0,0,.671.472.472,0,0,0,.667,0l3-3.026h0a.532.532,0,0,0,.1-.149.452.452,0,0,0,.036-.182.475.475,0,0,0-.135-.332l-3-3.026A.464.464,0,0,0,14.568,11.386Z" transform="translate(-7.875 -11.252)" fill="#f15a29"/>
</svg>
