<svg xmlns="http://www.w3.org/2000/svg" width="10.9" height="12.111" viewBox="0 0 10.9 12.111">
  <path id="Icon_material-date-range" data-name="Icon material-date-range" d="M8.133,8.45H6.922V9.661H8.133Zm2.422,0H9.344V9.661h1.211Zm2.422,0H11.767V9.661h1.211Zm1.211-4.239h-.606V3H12.372V4.211H7.528V3H6.317V4.211H5.711A1.206,1.206,0,0,0,4.506,5.422L4.5,13.9a1.211,1.211,0,0,0,1.211,1.211h8.478A1.215,1.215,0,0,0,15.4,13.9V5.422A1.215,1.215,0,0,0,14.189,4.211Zm0,9.689H5.711V7.239h8.478Z" transform="translate(-4.5 -3)" fill="#232f47"/>
</svg>
