<svg xmlns="http://www.w3.org/2000/svg" width="44" height="24.587" viewBox="0 0 44 24.587">
  <g id="couch" transform="translate(0 -112.9)">
    <path id="Path_14" data-name="Path 14" d="M41.135,195.8l2.647-.2,2.243.911.4,1.323.309,4.116-.92,3.73-1.272,1.71-1.779.73H7.37L4.4,206.445l-1-2.8.455-7.33,3.008-.713,2.948.662.155,1.323.309,2.87v1.2L10.567,203H40.009l.052-5.517Z" transform="translate(-3.108 -75.593)" fill="#fbb040"/>
    <g id="Group_27" data-name="Group 27" transform="translate(0 112.9)">
      <g id="Group_26" data-name="Group 26" transform="translate(0 0)">
        <path id="Path_15" data-name="Path 15" d="M41.817,119.629h-.877V116.38a3.488,3.488,0,0,0-3.48-3.48H24.836A3.479,3.479,0,0,0,22,114.37a3.491,3.491,0,0,0-2.836-1.47H11.232a.645.645,0,0,0,0,1.289h7.932a2.2,2.2,0,0,1,2.191,2.191v6.445a.151.151,0,0,0-.043-.034,4.208,4.208,0,0,0-2.845-1.126H7.734a2.215,2.215,0,0,0-1.461-1.916,2.259,2.259,0,0,0-.713-.12H4.34V116.38a2.2,2.2,0,0,1,2.191-2.191H8.645a.645.645,0,0,0,0-1.289H6.54a3.488,3.488,0,0,0-3.48,3.48v3.248H2.183A2.186,2.186,0,0,0,0,121.812v6.729a4.544,4.544,0,0,0,4.537,4.537h.327l-.7,1.9A1.88,1.88,0,0,0,5.9,137.487h1.04a1.868,1.868,0,0,0,1.487-.739l2.776-3.67H32.794l2.776,3.67a1.868,1.868,0,0,0,1.487.739H38.1a1.876,1.876,0,0,0,1.745-2.509l-.7-1.9h.327A4.544,4.544,0,0,0,44,128.541v-6.729A2.186,2.186,0,0,0,41.817,119.629ZM22.644,116.38a2.2,2.2,0,0,1,2.191-2.191H37.46a2.2,2.2,0,0,1,2.191,2.191v3.248H38.44a2.23,2.23,0,0,0-2.011,1.341,2.166,2.166,0,0,0-.163.7H25.532a4.234,4.234,0,0,0-2.887,1.16V116.38Zm-14.91,6.574H18.468a2.894,2.894,0,0,1,2.887,2.887v.92H7.734ZM7.4,135.983a.582.582,0,0,1-.455.232H5.9a.58.58,0,0,1-.541-.773l.877-2.346H9.591Zm30.7.223h-1.04a.558.558,0,0,1-.455-.232l-2.191-2.9h3.352s.868,2.337.877,2.346A.588.588,0,0,1,38.1,136.206Zm1.366-4.409H4.537a3.251,3.251,0,0,1-3.248-3.248V121.82a.9.9,0,0,1,.894-.894H5.56a.9.9,0,0,1,.894.894v5.595a.649.649,0,0,0,.645.645H30.766a.645.645,0,0,0,0-1.289H22.644v-.92a2.894,2.894,0,0,1,2.887-2.887H36.266v3.8H33.344a.645.645,0,0,0,0,1.289H36.9a.649.649,0,0,0,.645-.645v-5.595a.9.9,0,0,1,.894-.894h3.377a.9.9,0,0,1,.894.894v6.729h0A3.259,3.259,0,0,1,39.462,131.8Z" transform="translate(0 -112.9)" fill="#232f47"/>
      </g>
    </g>
  </g>
</svg>
