<svg id="_17362061001579060766" data-name="17362061001579060766" xmlns="http://www.w3.org/2000/svg" width="37.757" height="46" viewBox="0 0 37.757 46">
  <path id="Path_129" data-name="Path 129" d="M121.148,127.8a.9.9,0,1,0-.9-.9A.9.9,0,0,0,121.148,127.8Zm0,0" transform="translate(-109.446 -114.68)" fill="#f15a29"/>
  <path id="Path_130" data-name="Path 130" d="M121.148,187.8a.9.9,0,1,0-.9-.9A.9.9,0,0,0,121.148,187.8Zm0,0" transform="translate(-109.446 -169.289)" fill="#f15a29"/>
  <path id="Path_131" data-name="Path 131" d="M9.883,46H31.468a6.3,6.3,0,0,0,6.289-6.287.9.9,0,0,0-.9-.9H34.141V4.492A4.492,4.492,0,0,0,29.648,0H3.594A3.594,3.594,0,0,0,0,3.594V8.086a.9.9,0,0,0,.9.9H5.391V41.315A4.584,4.584,0,0,0,9.883,46ZM31.4,44.2H13.477a4.485,4.485,0,0,0,.9-2.7v-.9H35.794A4.5,4.5,0,0,1,31.4,44.2Zm.941-39.711v34.32H13.477a.9.9,0,0,0-.9.9V41.46a2.724,2.724,0,0,1-2.5,2.736,2.766,2.766,0,0,1-2.89-2.881V3.594a3.589,3.589,0,0,0-.48-1.8H29.648a2.7,2.7,0,0,1,2.7,2.7ZM1.8,7.187V3.634A1.823,1.823,0,0,1,3.4,1.807,1.8,1.8,0,0,1,5.391,3.594V7.187Zm0,0" fill="#f15a29"/>
  <path id="Path_132" data-name="Path 132" d="M220,231.271a5.341,5.341,0,0,0,1.8,4.133v5.85a.914.914,0,0,0,.246.637.9.9,0,0,0,1.15.128l2.2-1.465,2.2,1.465a.9.9,0,0,0,1.152-.13.915.915,0,0,0,.245-.636V235.4a5.338,5.338,0,0,0,1.8-4.015,5.391,5.391,0,0,0-10.78-.118Zm4.891,7.457-1.3.866v-3.12a5.417,5.417,0,0,0,3.594,0v3.12l-1.3-.866A.9.9,0,0,0,224.894,238.728Zm4.115-7.338a3.594,3.594,0,1,1-3.594-3.594A3.593,3.593,0,0,1,229.009,231.39Zm0,0" transform="translate(-200.236 -205.694)" fill="#f15a29"/>
  <path id="Path_133" data-name="Path 133" d="M121.148,67.8H137.32a.9.9,0,0,0,0-1.8H121.148a.9.9,0,0,0,0,1.8Zm0,0" transform="translate(-109.446 -60.07)" fill="#f15a29"/>
  <path id="Path_134" data-name="Path 134" d="M161.148,127.8h12.578a.9.9,0,0,0,0-1.8H161.148a.9.9,0,0,0,0,1.8Zm0,0" transform="translate(-145.853 -114.68)" fill="#f15a29"/>
  <path id="Path_135" data-name="Path 135" d="M161.148,187.8h12.578a.9.9,0,0,0,0-1.8H161.148a.9.9,0,0,0,0,1.8Zm0,0" transform="translate(-145.853 -169.289)" fill="#f15a29"/>
  <path id="Path_136" data-name="Path 136" d="M121.148,307.8h5.391a.9.9,0,0,0,0-1.8h-5.391a.9.9,0,0,0,0,1.8Zm0,0" transform="translate(-109.446 -278.508)" fill="#f15a29"/>
  <path id="Path_137" data-name="Path 137" d="M121.148,247.8h5.391a.9.9,0,0,0,0-1.8h-5.391a.9.9,0,0,0,0,1.8Zm0,0" transform="translate(-109.446 -223.898)" fill="#f15a29"/>
  <path id="Path_138" data-name="Path 138" d="M121.148,367.8h5.391a.9.9,0,0,0,0-1.8h-5.391a.9.9,0,0,0,0,1.8Zm0,0" transform="translate(-109.446 -333.117)" fill="#f15a29"/>
</svg>
