<svg xmlns="http://www.w3.org/2000/svg" width="34" height="29.882" viewBox="0 0 34 29.882">
  <g id="handshake" transform="translate(0 -31.006)">
    <path id="Path_106" data-name="Path 106" d="M246.659,35.717a.664.664,0,0,0,.664-.664V31.67a.664.664,0,1,0-1.328,0v3.383A.664.664,0,0,0,246.659,35.717Z" transform="translate(-229.66)" fill="#232f47"/>
    <path id="Path_107" data-name="Path 107" d="M154.5,64.59a.664.664,0,1,0,1.124-.708l-1.769-2.807a.664.664,0,1,0-1.124.708Z" transform="translate(-142.492 -27.782)" fill="#232f47"/>
    <path id="Path_108" data-name="Path 108" d="M313.057,64.8a.664.664,0,0,0,.916-.208l1.767-2.807a.664.664,0,1,0-1.124-.708l-1.767,2.807A.664.664,0,0,0,313.057,64.8Z" transform="translate(-291.979 -27.783)" fill="#232f47"/>
    <path id="Path_109" data-name="Path 109" d="M33.786,127.2l-1.154-2.038c-.181-.319-1.156.658,0,0l-2.932-5.19-1.04-1.838a1.662,1.662,0,0,0-2.248-.629l-1.78.985a1.65,1.65,0,0,0-.671,2.181l-.981.284a3.861,3.861,0,0,1-.812.186h0a1.658,1.658,0,0,1-.5-.152c-.137-.052-.307-.116-.517-.189l-1.738-.607a3.981,3.981,0,0,0-2.022-.26l-2.963.265a4,4,0,0,0-2.687.953l-1.688-.489a1.649,1.649,0,0,0-.675-2.171l-1.779-.986a1.663,1.663,0,0,0-2.249.629L.215,127.2a1.652,1.652,0,0,0,.63,2.257l1.779.986a1.665,1.665,0,0,0,2.249-.628l.188-.333a3.119,3.119,0,0,1,1.237.942A2.229,2.229,0,0,0,7.74,134.09a2.227,2.227,0,0,0,1.96,2.449,2.226,2.226,0,0,0,1.96,2.449,2.233,2.233,0,0,0,3.615,1.977l1.39-1.113a2.238,2.238,0,0,0,.3-.29l.794.634a2.231,2.231,0,0,0,3.585-1.314,2.219,2.219,0,0,0,.727.122,2.3,2.3,0,0,0,.253-.014,2.228,2.228,0,0,0,1.973-2.451,2.224,2.224,0,0,0,1.96-2.449,2.232,2.232,0,0,0,1.441-3.663,3.106,3.106,0,0,1,1.236-.943l.188.333a1.665,1.665,0,0,0,2.249.628l1.778-.985a1.654,1.654,0,0,0,.633-2.256ZM8.564,132.581a.9.9,0,0,1-1.13-1.411l2.486-1.987a.908.908,0,0,1,1.273.142.9.9,0,0,1-.142,1.268l-.012.01L8.564,132.58Zm.688,2.307a.907.907,0,0,1,.141-1.269h0l3.581-2.861a.907.907,0,0,1,1.273.142.907.907,0,0,1-.142,1.27l-3.58,2.86a.908.908,0,0,1-1.274-.141Zm2.567,2.782a.9.9,0,0,1-.465-1.6h0l2.478-1.98.009-.007a.907.907,0,0,1,1.272.141.907.907,0,0,1-.143,1.27l-2.486,1.987A.9.9,0,0,1,11.819,137.669Zm4.351.539a.9.9,0,0,1-.333.606l-1.39,1.113a.907.907,0,0,1-1.274-.141.907.907,0,0,1,.141-1.269h0L14.7,137.4l0,0a.908.908,0,0,1,1.273.142A.894.894,0,0,1,16.17,138.208Zm10.537-5.768a.91.91,0,0,1-1.272.141h0l-1.777-1.42a.664.664,0,0,0-.829,1.038l1.776,1.419a.9.9,0,1,1-1.13,1.411l-1.927-1.538a.664.664,0,0,0-.828,1.038l1.927,1.537a.905.905,0,0,1-1.132,1.413l-.959-.767,0,0-.81-.648-.151-.121a.664.664,0,0,0-.829,1.037l.964.771a.9.9,0,0,1-1.133,1.411l-1.094-.874a2.222,2.222,0,0,0-1.277-2.195,2.228,2.228,0,0,0-.866-3.324,2.232,2.232,0,0,0-2.687-3.357,2.215,2.215,0,0,0-.436-.914,2.238,2.238,0,0,0-3.139-.35l-1.778,1.421a4.376,4.376,0,0,0-1.595-1.242l3.658-6.469,1.947.564a2.172,2.172,0,0,0,.054.33c.471,1.938,2.256,2.841,4.658,2.358,2.023-.407,2.856.2,4.515,1.408.172.125.351.256.538.39,1.193.856,2.468,1.862,3.323,2.544l2.156,1.723a.907.907,0,0,1,.14,1.27Zm-.021-2.874-1.447-1.156c-.867-.691-2.16-1.712-3.378-2.586-.185-.132-.361-.26-.53-.384-1.72-1.253-2.964-2.158-5.559-1.636-.794.16-2.687.347-3.1-1.369-.059-.242,0-.326.026-.361.089-.124.446-.425,1.844-.549l2.966-.265a2.72,2.72,0,0,1,1.463.191l1.738.607c.193.067.348.126.484.178a2.545,2.545,0,0,0,2.158,0l1.281-.371,3.653,6.461A4.364,4.364,0,0,0,26.687,129.565Z" transform="translate(0 -80.564)" fill="#232f47"/>
  </g>
</svg>
