<svg xmlns="http://www.w3.org/2000/svg" width="29.415" height="50.202" viewBox="0 0 29.415 50.202">
  <g id="hourglass" transform="translate(0 0)">
    <path id="Path_66" data-name="Path 66" d="M140.98,304.961a.98.98,0,1,0-.98-.98A.981.981,0,0,0,140.98,304.961Zm0,0" transform="translate(-126.273 -273.291)" fill="#f15a29"/>
    <path id="Path_67" data-name="Path 67" d="M20.07,24.241a15.434,15.434,0,0,0,5.447-5.627,15.181,15.181,0,0,0,1.938-7.4v-5.5a2.946,2.946,0,0,0,1.961-2.773V.98a.98.98,0,0,0-.98-.98H.981A.98.98,0,0,0,0,.98V2.941A2.946,2.946,0,0,0,1.961,5.714v5.5a15.181,15.181,0,0,0,1.938,7.4,15.432,15.432,0,0,0,5.447,5.627,1.027,1.027,0,0,1,0,1.719A15.431,15.431,0,0,0,3.9,31.587a15.181,15.181,0,0,0-1.938,7.4v5.5A2.946,2.946,0,0,0,0,47.26v1.961a.98.98,0,0,0,.98.98H28.435a.98.98,0,0,0,.98-.98V47.26a2.946,2.946,0,0,0-1.961-2.773v-5.5a15.181,15.181,0,0,0-1.938-7.4,15.432,15.432,0,0,0-5.447-5.627,1.026,1.026,0,0,1,0-1.718ZM1.961,1.961H27.454v.98a.981.981,0,0,1-.981.98H2.942a.981.981,0,0,1-.98-.98ZM27.454,48.24H1.961v-.98a.981.981,0,0,1,.98-.98H26.474a.981.981,0,0,1,.981.98Zm-8.4-20.6A13.217,13.217,0,0,1,25.493,38.99v5.328H3.922V38.99a13.217,13.217,0,0,1,6.442-11.355,2.986,2.986,0,0,0,0-5.07A13.217,13.217,0,0,1,3.922,11.211V5.883H25.493v5.328a13.217,13.217,0,0,1-6.442,11.355,2.986,2.986,0,0,0,0,5.07Zm0,0" fill="#f15a29"/>
    <path id="Path_68" data-name="Path 68" d="M69.606,342.853a.98.98,0,0,0-.784-.392h0a.98.98,0,0,0-.783.391,4.987,4.987,0,0,1-1.368,1.243,22.222,22.222,0,0,1-3.012,1.473C61.7,346.4,60,347.111,60,349.828v.431a.98.98,0,0,0,.98.98H76.669a.98.98,0,0,0,.98-.98v-.431c0-2.716-1.7-3.434-3.667-4.266a22.648,22.648,0,0,1-3.042-1.49,4.879,4.879,0,0,1-1.334-1.22Zm6.043,6.426H62c.149-.906.767-1.207,2.421-1.9a24.228,24.228,0,0,0,3.267-1.6l.01-.006a7.074,7.074,0,0,0,1.124-.86,6.89,6.89,0,0,0,1.092.837l.01.006a24.638,24.638,0,0,0,3.3,1.62c1.661.7,2.281,1,2.431,1.911Zm0,0" transform="translate(-54.117 -308.883)" fill="#f15a29"/>
    <path id="Path_69" data-name="Path 69" d="M77.649,88.783v-1.8a.981.981,0,0,0-1.5-.832,13.82,13.82,0,0,1-14.649,0,.981.981,0,0,0-1.5.832v1.8a9.333,9.333,0,0,0,1.894,5.279,16,16,0,0,0,4.815,4.4,4.84,4.84,0,0,1,1.135,1.018v4.855a.98.98,0,1,0,1.961,0V99.481a5,5,0,0,1,1.174-1.042c3.99-2.406,6.67-6.286,6.67-9.656Zm-7.687,7.979-.01.006a6.633,6.633,0,0,0-1.124.885,6.331,6.331,0,0,0-1.091-.862l-.01-.007c-3.449-2.077-5.765-5.292-5.765-8v-.144a15.784,15.784,0,0,0,13.727,0v.144c0,2.667-2.355,5.947-5.726,7.979Zm0,0" transform="translate(-54.117 -77.567)" fill="#f15a29"/>
  </g>
</svg>
