<svg xmlns="http://www.w3.org/2000/svg" width="10.834" height="9.631" viewBox="0 0 10.834 9.631">
  <path id="Icon_awesome-shopping-cart" data-name="Icon awesome-shopping-cart" d="M9.934,5.668l.889-3.912a.451.451,0,0,0-.44-.551H2.995L2.822.361A.451.451,0,0,0,2.38,0H.451A.451.451,0,0,0,0,.451v.3A.451.451,0,0,0,.451,1.2H1.766l1.321,6.46a1.053,1.053,0,1,0,1.261.161H8.292a1.053,1.053,0,1,0,1.2-.2l.1-.457a.451.451,0,0,0-.44-.551H4.1l-.123-.6H9.494A.451.451,0,0,0,9.934,5.668Z" fill="#232f47"/>
</svg>
