<svg xmlns="http://www.w3.org/2000/svg" width="14.5" height="14.174" viewBox="0 0 14.5 14.174">
  <path id="Icon_ionic-ios-heart" data-name="Icon ionic-ios-heart" d="M12.875,3.938h-.031A3.556,3.556,0,0,0,9.875,5.562,3.556,3.556,0,0,0,6.906,3.938H6.875a3.533,3.533,0,0,0-3.5,3.531,7.607,7.607,0,0,0,1.494,4.147,26.177,26.177,0,0,0,5.006,4.822,26.177,26.177,0,0,0,5.006-4.822,7.607,7.607,0,0,0,1.494-4.147A3.533,3.533,0,0,0,12.875,3.938Z" transform="translate(-2.625 -3.188)" fill="none" stroke="#f15a29" stroke-width="1.5"/>
</svg>
