<svg xmlns="http://www.w3.org/2000/svg" width="37.259" height="50.202" viewBox="0 0 37.259 50.202">
  <g id="medal" transform="translate(-0.5)">
    <path id="Path_73" data-name="Path 73" d="M40.5,54.708A14.708,14.708,0,1,0,55.208,40,14.724,14.724,0,0,0,40.5,54.708ZM55.208,41.961A12.747,12.747,0,1,1,42.461,54.708,12.761,12.761,0,0,1,55.208,41.961Zm0,0" transform="translate(-36.078 -36.078)" fill="#f15a29"/>
    <path id="Path_74" data-name="Path 74" d="M95.2,100.636l3.8,3.745-.874,5.263a.981.981,0,0,0,1.419,1.031l4.735-2.459,4.735,2.459a.981.981,0,0,0,1.419-1.031l-.874-5.263,3.8-3.745a.98.98,0,0,0-.542-1.668l-5.274-.794L105.158,93.4a.98.98,0,0,0-1.754,0l-2.387,4.773-5.274.794a.98.98,0,0,0-.542,1.668Zm6.612-.6a.981.981,0,0,0,.731-.531l1.737-3.474,1.737,3.474a.981.981,0,0,0,.731.531l3.839.578-2.766,2.725a.982.982,0,0,0-.279.859l.637,3.83-3.446-1.789a.98.98,0,0,0-.9,0l-3.446,1.789.637-3.83a.98.98,0,0,0-.279-.859l-2.766-2.725Zm0,0" transform="translate(-85.152 -83.755)" fill="#f15a29"/>
    <path id="Path_75" data-name="Path 75" d="M182.461.981A.98.98,0,1,1,181.48,0,.98.98,0,0,1,182.461.981Zm0,0" transform="translate(-162.351)" fill="#f15a29"/>
    <path id="Path_76" data-name="Path 76" d="M14.509,5.612A18.631,18.631,0,0,0,6.633,37.477L.726,47.888a.981.981,0,0,0,1.052,1.444l6.708-1.393,2.358,6.644a.98.98,0,0,0,1.776.157L19.13,43.3l6.509,11.444a.98.98,0,0,0,.852.5c.029,0,.058,0,.087,0a.982.982,0,0,0,.838-.649l2.357-6.644,6.708,1.393a.981.981,0,0,0,1.052-1.444L31.626,37.477A18.631,18.631,0,0,0,23.751,5.612a.981.981,0,0,0-.485,1.9,16.668,16.668,0,1,1-8.272,0,.98.98,0,1,0-.485-1.9Zm-2.533,46.3-1.927-5.43a.981.981,0,0,0-1.123-.632L3.5,46.971l4.675-8.239a18.669,18.669,0,0,0,9.31,3.488Zm17.358-6.062a.981.981,0,0,0-1.123.632l-1.927,5.43-5.51-9.687a18.67,18.67,0,0,0,9.31-3.488l4.675,8.239Zm0,0" transform="translate(0 -5.034)" fill="#f15a29"/>
  </g>
</svg>
