<svg xmlns="http://www.w3.org/2000/svg" width="12.366" height="11.336" viewBox="0 0 12.366 11.336">
  <g id="phone_1_" data-name="phone (1)" transform="translate(0 -21.333)">
    <g id="Group_74" data-name="Group 74" transform="translate(0 21.333)">
      <g id="Group_73" data-name="Group 73">
        <path id="Path_32" data-name="Path 32" d="M12.156,23.934a8.158,8.158,0,0,0-11.945,0A.786.786,0,0,0,.211,25L1.4,26.254a.741.741,0,0,0,1.054,0,5.22,5.22,0,0,1,1.341-1.022.75.75,0,0,0,.4-.646l.179-1.354a5.347,5.347,0,0,1,3.616,0l.177,1.32a.774.774,0,0,0,.4.682,5.236,5.236,0,0,1,1.343,1.023.723.723,0,0,0,1.054,0L12.156,25A.786.786,0,0,0,12.156,23.934Z" transform="translate(0 -21.333)" fill="#f15a29"/>
        <path id="Path_33" data-name="Path 33" d="M51.172,192.682A1.286,1.286,0,0,0,50.035,192H45.6a1.286,1.286,0,0,0-1.137.682l-1.649,3.092a1.294,1.294,0,0,0-.151.606v1.8a1.032,1.032,0,0,0,1.031,1.031h8.244a1.032,1.032,0,0,0,1.031-1.031v-1.8a1.3,1.3,0,0,0-.151-.606Zm-3.352,4.986a2.061,2.061,0,1,1,2.061-2.061A2.063,2.063,0,0,1,47.819,197.668Z" transform="translate(-41.637 -187.878)" fill="#f15a29"/>
      </g>
    </g>
  </g>
</svg>
