<svg xmlns="http://www.w3.org/2000/svg" width="35.7" height="37.579" viewBox="0 0 35.7 37.579">
  <g id="paint-roller" transform="translate(-12.8)">
    <path id="Path_16" data-name="Path 16" d="M186.2,291.6h8.523l-.587,2.672-1.042.976-.257,2,.389,7.914-1.564,1.96-3.245-.411-.866-3.113.3-1.96,4.654.022-.022-3.715-4.434-.22-.242-2.415-1.153-.91Z" transform="translate(-160.671 -270.193)" fill="#fbb040"/>
    <g id="Group_30" data-name="Group 30" transform="translate(12.8)">
      <g id="Group_29" data-name="Group 29" transform="translate(0)">
        <g id="Group_28" data-name="Group 28">
          <path id="Path_17" data-name="Path 17" d="M45.372,4.441V1.879A1.883,1.883,0,0,0,43.493,0H17.183A1.883,1.883,0,0,0,15.3,1.879H14.041A1.244,1.244,0,0,0,12.8,3.12V6.9a1.244,1.244,0,0,0,1.241,1.241H15.3a1.883,1.883,0,0,0,1.879,1.879v3.759a2.5,2.5,0,0,0,3.759,2.166v.962a2.5,2.5,0,1,0,5.007,0V14.19a2.232,2.232,0,0,0,.94.213,2.2,2.2,0,0,0,2.195-2.195V10.013H43.493a1.883,1.883,0,0,0,1.879-1.879V5.719a2.513,2.513,0,0,1,1.879,2.43v2.5a2.585,2.585,0,0,1-2,2.518c-.485.088-8.472.793-13.669,1.241a2.5,2.5,0,0,0-2.5,2.5v3.766H25.324a.613.613,0,0,0-.485.228.638.638,0,0,0-.132.521L25.221,24a1.327,1.327,0,0,0,1.292,1.057.058.058,0,0,1,.059.059v9.228A3.208,3.208,0,0,0,29.4,37.564c.1.007.2.015.3.015a3.137,3.137,0,0,0,3.142-3.135V25.1a.058.058,0,0,1,.059-.059,1.327,1.327,0,0,0,1.292-1.057l.514-2.577a.638.638,0,0,0-.132-.521.613.613,0,0,0-.485-.228H30.33V16.892a1.252,1.252,0,0,1,1.307-1.248c2.217-.191,13.3-1.145,13.86-1.263a3.806,3.806,0,0,0,3-3.744v-2.5A3.741,3.741,0,0,0,45.372,4.441ZM14.055,6.9l-.015-3.773H15.3V6.893ZM44.124,8.141a.623.623,0,0,1-.624.624H28.459a.623.623,0,0,0-.624.624v2.819a.94.94,0,1,1-1.879,0,.624.624,0,0,0-1.248,0v4.7a1.255,1.255,0,0,1-2.511,0V13.772a.624.624,0,0,0-1.248,0,1.255,1.255,0,1,1-2.511,0V9.4a.623.623,0,0,0-.624-.624H17.19a.623.623,0,0,1-.624-.624V1.872a.623.623,0,0,1,.624-.624H43.5a.623.623,0,0,1,.624.624V8.141ZM31.593,30.693H27.835v-2.5h3.759Zm-.617,5.153a1.843,1.843,0,0,1-1.454.477,1.957,1.957,0,0,1-1.7-1.975v-2.4h3.759v2.5A1.873,1.873,0,0,1,30.977,35.846Zm1.989-12.091a.062.062,0,0,1-.059.051,1.313,1.313,0,0,0-1.314,1.314v1.821H27.835V25.121a1.313,1.313,0,0,0-1.314-1.314.057.057,0,0,1-.059-.051l-.367-1.828H33.34Z" transform="translate(-12.8)" fill="#232f47"/>
          <path id="Path_18" data-name="Path 18" d="M124.424,76.8a.623.623,0,0,0-.624.624v4.383a.624.624,0,0,0,1.248,0V77.424A.623.623,0,0,0,124.424,76.8Z" transform="translate(-115.651 -71.162)" fill="#232f47"/>
          <path id="Path_19" data-name="Path 19" d="M175.624,42.7a.623.623,0,0,0-.624.624v4.383a.624.624,0,0,0,1.248,0V43.324A.623.623,0,0,0,175.624,42.7Z" transform="translate(-163.093 -39.565)" fill="#232f47"/>
        </g>
      </g>
    </g>
  </g>
</svg>
