<svg xmlns="http://www.w3.org/2000/svg" width="31" height="31" viewBox="0 0 31 31">
  <g id="paint-brush_1_" data-name="paint-brush (1)" transform="translate(-0.1 -0.036)">
    <path id="Path_20" data-name="Path 20" d="M20.773,13.3l1.839,1.781,2.75.613,2.82,1.088,1.6,2.2-.743,1.529-3.214,3.179-2.06-.109L21.632,21.45,20.1,17.206l.157-3.224Z" transform="translate(-18.667 -12.38)" fill="#fbb040"/>
    <path id="Path_21" data-name="Path 21" d="M433.8,20.593l3.906-1.893-1.733,3.886Z" transform="translate(-407.911 -17.42)" fill="#fbb040"/>
    <g id="Group_33" data-name="Group 33" transform="translate(0.1 0.036)">
      <g id="Group_32" data-name="Group 32" transform="translate(0 0)">
        <path id="Path_22" data-name="Path 22" d="M26.959,9.387a.468.468,0,0,0,.115-.17L31.041.936a.606.606,0,0,0-.805-.811l-8.3,3.959a.835.835,0,0,0-.17.115l-7.491,7.477-.993-.993.073-.073a1.252,1.252,0,0,0,.369-.866,1.1,1.1,0,0,0-.315-.775l-1.4-1.4a2.332,2.332,0,0,0-.224-1.731c-.908-1.7-3.67-2.833-6-3.2A4.631,4.631,0,0,1,2.958.8C2.553.324,2.2-.087,1.669.07,1.111.234.978.881.857,1.777a11.427,11.427,0,0,0,.43,5.412C2.123,9.8,4.194,12.5,6.834,12.5h.055l1.478,1.477a1.08,1.08,0,0,0,.775.315h0a1.26,1.26,0,0,0,.872-.363l.073-.073,1,.993-8.061,8.04-.006.006v.006L.851,25.073a2.572,2.572,0,0,0,0,3.632L2.4,30.249a2.589,2.589,0,0,0,3.646,0L16.276,20.036l7.843,7.822.018.018.018.018,2.489,2.482A2.25,2.25,0,1,0,29.829,27.2l-4.724-4.71a.6.6,0,0,0-.854.854l1.787,1.78-1.472,1.471L10.946,13.007l1.472-1.471,1.411,1.411.012.012c.006.006.012.006.012.012L16,15.114,16,15.12c.006.006.006.006.012.006l2.156,2.149.006.006a.006.006,0,0,1,.006.006l2.21,2.21a.614.614,0,0,0,.86,0,.6.6,0,0,0,0-.854l-1.787-1.786,7.491-7.471Zm-13.7,7.634-7.637,7.61L4.3,23.323l7.637-7.616ZM5.187,29.389a1.367,1.367,0,0,1-1.932,0L1.7,27.846a1.361,1.361,0,0,1-.4-.963,1.336,1.336,0,0,1,.4-.963l1.744-1.744,3.482,3.469Zm2.6-2.6L6.471,25.485l7.637-7.616,1.308,1.308Zm19.107-.817,2.077,2.07a1.043,1.043,0,1,1-1.478,1.471l-2.071-2.07ZM2.438,6.826a10.374,10.374,0,0,1-.382-4.879c.018-.109.03-.206.042-.291A5.684,5.684,0,0,0,5.587,3.836c2.332.369,4.53,1.477,5.117,2.573a1.1,1.1,0,0,1,.079.975L6.859,11.294C4.9,11.312,3.158,9.1,2.438,6.826Zm5.547,5.067L11.3,8.588l1.181,1.181L9.663,12.584h0l-.491.49ZM24.8,6.372l-.006-.006c0-.006-.006-.006-.012-.006l-1.55-1.55,2.55-1.217L27.57,5.379,26.353,7.922Zm3.325-2.149L26.935,3.037l2.271-1.084ZM22.193,5.488,23.5,6.8l-7.061,7.041-1.314-1.308ZM17.3,14.7,24.361,7.65l1.314,1.308L18.607,16Z" transform="translate(-0.1 -0.036)" fill="#232f47"/>
        <path id="Path_23" data-name="Path 23" d="M364.453,336.212a.674.674,0,0,0-.3.893v.007a.661.661,0,0,0,.593.367.623.623,0,0,0,.3-.073.674.674,0,0,0,.3-.893.666.666,0,0,0-.893-.3Z" transform="translate(-342.132 -315.878)" fill="#232f47"/>
      </g>
    </g>
  </g>
</svg>
