<svg xmlns="http://www.w3.org/2000/svg" width="34.118" height="38.184" viewBox="0 0 34.118 38.184">
  <g id="ruler_4_" data-name="ruler (4)" transform="translate(17.071 38.183) rotate(-135)">
    <path id="Path_94" data-name="Path 94" d="M24.141,6.064a1.681,1.681,0,0,0-.5-1.2h0L19.266.494a1.7,1.7,0,0,0-2.394,0L.5,16.846a1.692,1.692,0,0,0,0,2.395l4.379,4.373a1.7,1.7,0,0,0,2.394,0L23.645,7.262a1.681,1.681,0,0,0,.5-1.2Zm-1.615.077-1,1L20.246,5.861a.791.791,0,0,0-1.118,1.12l1.279,1.278L19.33,9.334,18.049,8.055a.791.791,0,0,0-1.118,1.12l1.279,1.278-1.077,1.076-1.281-1.279a.791.791,0,1,0-1.118,1.12l1.279,1.278-1.077,1.076-1.281-1.279a.791.791,0,1,0-1.118,1.12l1.279,1.278-1.077,1.076-1.281-1.279a.791.791,0,0,0-1.118,1.12l1.279,1.278L10.54,18.111,9.259,16.832a.791.791,0,0,0-1.118,1.12l1.279,1.277L8.343,20.305,7.062,19.026a.791.791,0,0,0-1.118,1.12l1.279,1.278L6.151,22.494a.111.111,0,0,1-.157,0L1.615,18.121a.109.109,0,0,1,0-.155L17.99,1.614a.111.111,0,0,1,.157,0l4.379,4.373a.109.109,0,0,1,0,.154Z" transform="translate(0 0)" fill="#232f47"/>
    <path id="Path_95" data-name="Path 95" d="M219.724,204.738h-2.9a.788.788,0,0,0,0,1.576h1l-11.894,11.877v-1a.788.788,0,1,0-1.576,0v2.9a.788.788,0,0,0,.788.788h2.9a.788.788,0,0,0,0-1.576h-1l11.894-11.877v1a.788.788,0,1,0,1.576,0v-2.9A.788.788,0,0,0,219.724,204.738Z" transform="translate(-193.512 -193.88)" fill="#232f47"/>
  </g>
</svg>
