<svg xmlns="http://www.w3.org/2000/svg" width="18.204" height="16.233" viewBox="0 0 18.204 16.233">
  <g id="layer1" transform="translate(178.634 -234.263)">
    <g id="g1413" transform="translate(-178.634 234.263)">
      <path id="path1353" d="M-171.07,243.753a1.832,1.832,0,0,1-.505,1.815,20.35,20.35,0,0,1-3.921,2.891,17.648,17.648,0,0,1-2.358,1.151c-.533.187-.973.271-1.2-.112a.741.741,0,0,1,0-.674,58.823,58.823,0,0,1,3.322-6.381c.112-.187.225-.393.337-.589,1.666-2.873,3.874-6.391,4.314-6.962.056-.075.178-.168.281-.112a.21.21,0,0,1,.075.225c0,.009-.028.112-.037.159a23.754,23.754,0,0,0-.309,8.59Z" transform="translate(179.134 -234.763)" fill="#00a3e0"/>
      <path id="path1355" d="M-155.292,244.783c-.7-.318-1.067-.487-1.319-1.347a20.271,20.271,0,0,1-.543-4.838,17.112,17.112,0,0,1,.178-2.62c.1-.552.253-.982.7-.982a.742.742,0,0,1,.58.346,58.025,58.025,0,0,1,3.864,6.054c.112.2.225.393.337.6,1.656,2.882,3.6,6.55,3.874,7.2.037.094.065.243-.037.309a.227.227,0,0,1-.234-.047c-.009-.009-.084-.084-.122-.112a23.655,23.655,0,0,0-7.28-4.566Z" transform="translate(165.789 -234.904)" fill="#00a3e0"/>
      <path id="path1357" d="M-169.693,263.3a1.845,1.845,0,0,1,1.834-.477,21.293,21.293,0,0,1,4.463,1.956,17.233,17.233,0,0,1,2.171,1.46c.43.365.721.711.505,1.095a.74.74,0,0,1-.59.337,60.066,60.066,0,0,1-7.177.318h-.692c-3.322-.009-7.467-.159-8.178-.253-.1-.019-.243-.065-.234-.187a.2.2,0,0,1,.15-.178,1.141,1.141,0,0,1,.159-.047,23.825,23.825,0,0,0,7.589-4.023Z" transform="translate(178.197 -251.751)" fill="#00a3e0"/>
    </g>
  </g>
</svg>
