<svg xmlns="http://www.w3.org/2000/svg" width="60" height="43" viewBox="0 0 60 43">
  <g id="Free" transform="translate(-2 -19)">
    <path id="Path_119" data-name="Path 119" d="M51,33H44V22a3,3,0,0,0-3-3H5a3,3,0,0,0-3,3V56a3,3,0,0,0,3,3h6.812a5.986,5.986,0,0,0,10.376,0H46.812a5.986,5.986,0,0,0,10.376,0H59a3,3,0,0,0,3-3V44A11.013,11.013,0,0,0,51,33Zm8.941,10H49a1,1,0,0,1-1-1V35h3a9.011,9.011,0,0,1,8.941,8ZM46,35v7a3,3,0,0,0,3,3H60v8H57.188a5.986,5.986,0,0,0-10.376,0H44V35ZM22.188,53a5.986,5.986,0,0,0-10.376,0,6.207,6.207,0,0,0-.453.953A6.724,6.724,0,0,0,11.09,55H4V49H42v6H22.91a5.816,5.816,0,0,0-.254-1.016A6.648,6.648,0,0,0,22.188,53ZM4,27H42V41H4ZM42,43v4H4V43ZM5,21H41a1,1,0,0,1,1,1v3H4V22A1,1,0,0,1,5,21ZM5,57a1,1,0,0,1-1-1V55h7.09a5.6,5.6,0,0,0,0,2Zm12,3a4,4,0,1,1,4-4A4,4,0,0,1,17,60Zm5.91-3a10.452,10.452,0,0,0,0-2H46.09a5.6,5.6,0,0,0,0,2ZM52,60a4,4,0,1,1,4-4A4,4,0,0,1,52,60Zm8-4a1,1,0,0,1-1,1H57.91a5.6,5.6,0,0,0,0-2H60Z" fill="#fbb040"/>
    <path id="Path_120" data-name="Path 120" d="M14,29H11a2,2,0,0,0-2,2v7a1,1,0,0,0,2,0V35h2a1,1,0,0,0,0-2H11V31h3a1,1,0,0,0,0-2Z" fill="#fbb040"/>
    <path id="Path_121" data-name="Path 121" d="M29,31a1,1,0,0,0,0-2H26a2,2,0,0,0-2,2v6a2,2,0,0,0,2,2h3a1,1,0,0,0,0-2H26V35h2a1,1,0,0,0,0-2H26V31Z" fill="#fbb040"/>
    <path id="Path_122" data-name="Path 122" d="M36,31a1,1,0,0,0,0-2H33a2,2,0,0,0-2,2v6a2,2,0,0,0,2,2h3a1,1,0,0,0,0-2H33V35h2a1,1,0,0,0,0-2H33V31Z" fill="#fbb040"/>
    <path id="Path_123" data-name="Path 123" d="M22,32a3,3,0,0,0-3-3H17a1,1,0,0,0-1,1v8a1,1,0,0,0,2,0V35.667L20.2,38.6a1,1,0,1,0,1.6-1.2l-1.912-2.549A3,3,0,0,0,22,32Zm-3,1H18V31h1a1,1,0,0,1,0,2Z" fill="#fbb040"/>
  </g>
</svg>
