<svg xmlns="http://www.w3.org/2000/svg" width="14" height="14" viewBox="0 0 14 14">
  <g id="Icon_metro-star-full" data-name="Icon metro-star-full" transform="translate(-2.571 -2.683)" fill="none">
    <path d="M16.571,8.031l-4.837-.739L9.571,2.683,7.408,7.292l-4.837.739,3.5,3.587-.826,5.065,4.326-2.391L13.9,16.683l-.826-5.065,3.5-3.587Z" stroke="none"/>
    <path d="M 9.570712089538574 5.036478042602539 L 8.312831878662109 7.716400146484375 L 8.086112022399902 8.199440956115723 L 7.558631896972656 8.280030250549316 L 4.645536422729492 8.725117683410645 L 6.78646183013916 10.91940021514893 L 7.138911247253418 11.28063011169434 L 7.057662010192871 11.77873992919922 L 6.562965393066406 14.81152534484863 L 9.086911201477051 13.41632080078125 L 9.570701599121094 13.14888000488281 L 10.05449199676514 13.41632080078125 L 12.57842445373535 14.81151866912842 L 12.08371162414551 11.77873992919922 L 12.00246143341064 11.28063011169434 L 12.35492134094238 10.91940021514893 L 14.49586868286133 8.725114822387695 L 11.58282089233398 8.280030250549316 L 11.05535125732422 8.199440956115723 L 10.82862186431885 7.716400146484375 L 9.570712089538574 5.036478042602539 M 9.570701599121094 2.682981491088867 L 11.73386192321777 7.291500091552734 L 16.57070159912109 8.030520439147949 L 13.07067108154297 11.61775016784668 L 13.89692115783691 16.68297958374023 L 9.570701599121094 14.29150009155273 L 5.244482040405273 16.68297958374023 L 6.070701599121094 11.61775016784668 L 2.570701599121094 8.030520439147949 L 7.407591819763184 7.291500091552734 L 9.570701599121094 2.682981491088867 Z" stroke="none" fill="#f15a29"/>
  </g>
</svg>
