<svg id="Group_295" data-name="Group 295" xmlns="http://www.w3.org/2000/svg" width="30" height="30" viewBox="0 0 30 30">
  <path id="Path_152" data-name="Path 152" d="M0,0H30V30H0Z" fill="none"/>
  <path id="Path_153" data-name="Path 153" d="M28,21.317a7.745,7.745,0,0,1-6.127,7.545L21.044,26.4A5.2,5.2,0,0,0,24.7,23.889H21.5a2.588,2.588,0,0,1-2.6-2.575v-5.15a2.588,2.588,0,0,1,2.6-2.575h3.819a10.414,10.414,0,0,0-20.639,0H8.5a2.588,2.588,0,0,1,2.6,2.575v5.15a2.588,2.588,0,0,1-2.6,2.575H4.6A2.588,2.588,0,0,1,2,21.314V14.876a13,13,0,0,1,26,0Z" transform="translate(0)" fill="#a8a8a8"/>
</svg>
