<svg xmlns="http://www.w3.org/2000/svg" width="18" height="22" viewBox="0 0 18 22">
  <g id="construction-and-tools" transform="translate(-87.355)">
    <path id="Path_146" data-name="Path 146" d="M140.47,253.665a6.554,6.554,0,0,0,6.47-6.621v-2.931H134v2.931A6.554,6.554,0,0,0,140.47,253.665Zm0,0" transform="translate(-44.114 -231.665)" fill="#f15a29"/>
    <path id="Path_147" data-name="Path 147" d="M88.156,38.35h16.4a.814.814,0,0,0,0-1.628h-.673V35.88a7.687,7.687,0,0,0-3.289-6.322v3.435a.8.8,0,1,1-1.6,0V29.04a.821.821,0,0,1,.059-.306,7.368,7.368,0,0,0-1.9-.464v5.721a.8.8,0,1,1-1.6,0V28.27a7.362,7.362,0,0,0-1.895.464.826.826,0,0,1,.059.306v3.952a.8.8,0,1,1-1.6,0V29.557a7.688,7.688,0,0,0-3.29,6.323v.842h-.673a.814.814,0,0,0,0,1.628Zm0,0" transform="translate(0 -26.736)" fill="#f15a29"/>
    <path id="Path_148" data-name="Path 148" d="M308.079,28.283a.813.813,0,0,0-1.567-.306,7.63,7.63,0,0,1,1.567.824Zm0,0" transform="translate(-207.478 -25.979)" fill="#f15a29"/>
    <path id="Path_149" data-name="Path 149" d="M177.419,27.469a.814.814,0,0,0-.814.814V28.8a7.63,7.63,0,0,1,1.567-.824A.814.814,0,0,0,177.419,27.469Zm0,0" transform="translate(-84.494 -25.979)" fill="#f15a29"/>
    <path id="Path_150" data-name="Path 150" d="M242.627,1.533V.814a.814.814,0,1,0-1.627,0v.719a7.643,7.643,0,0,1,1.627,0Zm0,0" transform="translate(-145.458 0)" fill="#f15a29"/>
  </g>
</svg>
