<svg id="user" xmlns="http://www.w3.org/2000/svg" width="9.005" height="10.794" viewBox="0 0 9.005 10.794">
  <path id="Path_34" data-name="Path 34" d="M89.632,5.2a2.516,2.516,0,0,0,1.838-.762A2.515,2.515,0,0,0,92.231,2.6,2.516,2.516,0,0,0,91.47.762a2.6,2.6,0,0,0-3.676,0A2.516,2.516,0,0,0,87.032,2.6a2.515,2.515,0,0,0,.762,1.838A2.516,2.516,0,0,0,89.632,5.2Zm0,0" transform="translate(-85.197 0)" fill="#232f47"/>
  <path id="Path_35" data-name="Path 35" d="M8.983,250.4a6.421,6.421,0,0,0-.087-.682,5.374,5.374,0,0,0-.168-.686,3.387,3.387,0,0,0-.282-.64,2.414,2.414,0,0,0-.425-.554,1.874,1.874,0,0,0-.611-.384,2.11,2.11,0,0,0-.78-.141.791.791,0,0,0-.423.179l-.44.284a2.523,2.523,0,0,1-.57.251,2.212,2.212,0,0,1-1.393,0,2.517,2.517,0,0,1-.569-.251L2.8,247.5a.79.79,0,0,0-.422-.179,2.108,2.108,0,0,0-.779.141,1.873,1.873,0,0,0-.611.384,2.414,2.414,0,0,0-.425.554,3.394,3.394,0,0,0-.282.64,5.385,5.385,0,0,0-.168.686,6.4,6.4,0,0,0-.087.682c-.014.207-.022.421-.022.637A1.792,1.792,0,0,0,.532,252.4a1.916,1.916,0,0,0,1.372.5H7.1a1.916,1.916,0,0,0,1.372-.5,1.792,1.792,0,0,0,.532-1.356c0-.217-.007-.432-.022-.638Zm0,0" transform="translate(0 -242.102)" fill="#232f47"/>
</svg>
