<svg id="wrench" xmlns="http://www.w3.org/2000/svg" width="25" height="25" viewBox="0 0 25 25">
  <path id="Path_4" data-name="Path 4" d="M244.666,244.9l.678.519.537.959-.638.783.506.846,1.326-.431,5.963,5.739-.187,2.828-1.073.846-1.691.347-2.45-1.13-3.691-3.5-.855-1.15.2-1.306-.445-.612-1.169.7L240.1,249.01Z" transform="translate(-228.798 -232.952)" fill="#fbb040"/>
  <g id="Group_11" data-name="Group 11" transform="translate(14.683 9.154)">
    <g id="Group_10" data-name="Group 10">
      <path id="Path_5" data-name="Path 5" d="M304.356,189.446a.411.411,0,0,0-.035-.111c-.018-.035-.035-.07-.053-.1a.577.577,0,0,0-.07-.088.516.516,0,0,0-.088-.07.326.326,0,0,0-.1-.053.619.619,0,0,0-.111-.035.5.5,0,0,0-.229,0,.409.409,0,0,0-.111.035c-.035.018-.07.035-.1.053s-.065.047-.088.07a.463.463,0,0,0-.07.088.326.326,0,0,0-.053.1c-.012.035-.023.07-.035.111a.719.719,0,0,0-.012.111.8.8,0,0,0,.012.117.411.411,0,0,0,.035.111c.018.035.035.07.053.1a.577.577,0,0,0,.07.088.465.465,0,0,0,.088.07.327.327,0,0,0,.1.053.618.618,0,0,0,.111.035.72.72,0,0,0,.117.012.792.792,0,0,0,.117-.012.409.409,0,0,0,.111-.035c.035-.018.07-.035.1-.053s.065-.047.088-.07a.465.465,0,0,0,.07-.088.327.327,0,0,0,.053-.1c.012-.035.023-.07.035-.111a.72.72,0,0,0,.012-.117C304.367,189.522,304.361,189.481,304.356,189.446Z" transform="translate(-303.2 -188.975)" fill="#232f47"/>
    </g>
  </g>
  <g id="Group_13" data-name="Group 13" transform="translate(16.548 16.55)">
    <g id="Group_12" data-name="Group 12">
      <path id="Path_6" data-name="Path 6" d="M342.862,342.146a.41.41,0,0,0-.035-.111c-.018-.035-.035-.07-.053-.1a.547.547,0,0,0-.076-.088.92.92,0,0,0-.088-.07.325.325,0,0,0-.1-.053.618.618,0,0,0-.111-.035.5.5,0,0,0-.229,0,.408.408,0,0,0-.111.035c-.035.018-.07.035-.1.053s-.065.047-.088.07a.514.514,0,0,0-.07.088.326.326,0,0,0-.053.1.618.618,0,0,0-.035.111.4.4,0,0,0-.012.117.8.8,0,0,0,.012.117.409.409,0,0,0,.035.111c.018.035.035.07.053.1s.047.065.07.088.059.053.088.076a.325.325,0,0,0,.1.053.623.623,0,0,0,.111.035.719.719,0,0,0,.111.012.8.8,0,0,0,.117-.012.409.409,0,0,0,.111-.035c.035-.018.07-.035.1-.053a.551.551,0,0,0,.088-.076c.023-.029.053-.059.076-.088a.327.327,0,0,0,.053-.1.626.626,0,0,0,.035-.111.595.595,0,0,0,0-.235Z" transform="translate(-341.7 -341.675)" fill="#232f47"/>
    </g>
  </g>
  <g id="Group_15" data-name="Group 15" transform="translate(0 0)">
    <g id="Group_14" data-name="Group 14">
      <path id="Path_7" data-name="Path 7" d="M18.978,14.169a.482.482,0,0,0-.522-.107l-1.011.4-.312-.313.566-.566a.486.486,0,0,0,0-.689l-1.123-1.123L18.47,9.876a5.1,5.1,0,0,0,1.46.215,5.054,5.054,0,0,0,4.873-6.4.482.482,0,0,0-.347-.342.49.49,0,0,0-.469.127L21.829,5.637l-2.036-.464-.464-2.036L21.487.978a.49.49,0,0,0,.127-.469.5.5,0,0,0-.342-.347A5.06,5.06,0,0,0,15.091,6.5L11.937,9.656,5.292,3l.156-.156a.479.479,0,0,0,.137-.415.5.5,0,0,0-.244-.361L1.762.084a.481.481,0,0,0-.581.083L.17,1.178a.489.489,0,0,0-.083.581l1.992,3.58a.48.48,0,0,0,.361.244.322.322,0,0,0,.068,0,.492.492,0,0,0,.347-.142l.156-.156,6.65,6.651L6.508,15.1A5.062,5.062,0,0,0,.166,21.274a.482.482,0,0,0,.347.342.49.49,0,0,0,.469-.127l2.007-2.007,2.495,2.5L3.476,23.985a.49.49,0,0,0-.127.469.5.5,0,0,0,.342.347,4.99,4.99,0,0,0,1.338.181,5.061,5.061,0,0,0,4.843-6.52l1.89-1.89,1.123,1.123a.483.483,0,0,0,.347.142.5.5,0,0,0,.347-.142l.566-.566.312.313-.4,1.011a.482.482,0,0,0,.107.523l4.97,4.971a3.4,3.4,0,1,0,4.8-4.805ZM17.049,2.15A4.092,4.092,0,0,1,19.935.959c.063,0,.127,0,.186,0L18.446,2.638a.5.5,0,0,0-.132.454l.591,2.6a.484.484,0,0,0,.366.366l2.6.591a.486.486,0,0,0,.454-.132L24,4.841a4.084,4.084,0,0,1-4.072,4.273,4.085,4.085,0,0,1-4.077-4.078A4.082,4.082,0,0,1,17.049,2.15ZM2.621,4.3l-1.5-2.691.488-.488,2.69,1.5ZM3.7,4.6,4.6,3.693l6.65,6.651-.9.9ZM7.919,22.817a4.1,4.1,0,0,1-3.076,1.192l1.675-1.675a.483.483,0,0,0,.142-.347.5.5,0,0,0-.142-.347L3.329,18.451a.486.486,0,0,0-.688,0L.966,20.127a4.077,4.077,0,1,1,6.953,2.691Zm1.548-5.323a5.176,5.176,0,0,0-.527-.776l5.346-5.348a.487.487,0,1,0-.688-.689L8.246,16.029A5.174,5.174,0,0,0,7.47,15.5L15.5,7.468a5.182,5.182,0,0,0,.854,1.138,5,5,0,0,0,1.138.855Zm14.1,5.382L18.9,18.212a.487.487,0,1,0-.688.689l4.663,4.664a2.422,2.422,0,0,1-3.047-.313l-4.746-4.747.4-1.011a.482.482,0,0,0-.107-.523l-.884-.884a.483.483,0,0,0-.347-.142.5.5,0,0,0-.347.142l-.566.566-.776-.776,3.427-3.428.776.776-.571.576a.486.486,0,0,0,0,.689l.884.884a.482.482,0,0,0,.522.107l1.011-.4,4.746,4.747a2.4,2.4,0,0,1,.708,1.714A2.361,2.361,0,0,1,23.567,22.876Z" transform="translate(0.016 0.019)" fill="#232f47"/>
    </g>
  </g>
</svg>
