<?xml version="1.0" encoding="utf-8"?>
<!-- Generator: Adobe Illustrator 22.1.0, SVG Export Plug-In . SVG Version: 6.00 Build 0)  -->
<svg version="1.1" id="Слой_1" xmlns="http://www.w3.org/2000/svg" xmlns:xlink="http://www.w3.org/1999/xlink" x="0px" y="0px"
	 viewBox="0 0 101 80" style="enable-background:new 0 0 101 80;" xml:space="preserve">
<style type="text/css">
	.st0{fill:#2EAB60;}
</style>
<g>
	<g transform="translate(0.000000, -1.000000)">
		<path class="st0" d="M86.9,22.6H72.6c-0.8-0.7-1.8-1.2-2.8-1.5c-0.3-0.1-0.8-0.3-1.2-0.5c0.3-0.3,0.7-0.6,1-0.9
			c1.4-1.2,2.7-2.3,2.1-3.6c-0.5-1.4-2.2-1.4-4-1.5c-0.4,0-0.9,0-1.3-0.1c0.2-0.4,0.4-0.8,0.6-1.2c0.9-1.6,1.7-3.1,0.7-4.1
			s-2.6-0.6-4.2,0c-0.4,0.1-0.9,0.3-1.3,0.4c0-0.4,0.1-0.9,0.2-1.3c0.3-1.8,0.5-3.5-0.8-4.1S59,4.4,57.6,5.5c-0.3,0.4-0.7,0.8-1.1,1
			c-0.1-0.4-0.2-0.9-0.3-1.3c-0.3-1.7-0.7-3.4-2.2-3.6c-1.5-0.3-2.3,1.2-3.3,2.7C50.6,4.5,50.3,5,50,5.4c-0.3-0.4-0.6-0.8-0.8-1.2
			c-0.9-1.5-1.8-3-3.3-2.7c-1.3,0.3-1.7,2-2,3.6c-0.1,0.4-0.2,0.9-0.3,1.3c-0.4-0.2-0.8-0.6-1.1-0.8c-1.4-1.1-2.8-2.2-3.9-1.4
			c-1.3,0.7-1,2.4-0.8,4.1C38,8.9,38,9.4,38.1,9.8c-0.4-0.1-0.9-0.3-1.3-0.4c-1.7-0.6-3.3-1.1-4.2,0c-1,1.1-0.2,2.6,0.7,4.1
			c0.2,0.3,0.4,0.8,0.6,1.2c-0.4,0-1,0-1.3,0.1c-1.8,0-3.5,0.1-4,1.5c-0.5,1.4,0.8,2.5,2.1,3.6c0.3,0.2,0.7,0.6,1,0.9
			c-0.4,0.2-0.9,0.4-1.2,0.5c-1,0.3-1.9,0.8-2.8,1.5H13.3c-1.5,0-2.7,1.2-2.7,2.7v7.9c0,1.5,1.2,2.7,2.7,2.7v42.1
			c0,1.5,1.2,2.7,2.7,2.7h5.2c1.5,0,2.7-1.2,2.7-2.7v-6.6h52.6v6.6c0,1.5,1.2,2.7,2.7,2.7h5.2c1.5,0,2.7-1.2,2.7-2.7V35.8
			c1.5,0,2.7-1.2,2.7-2.7v-7.9C89.6,23.8,88.4,22.6,86.9,22.6z M32.4,17.8c-0.2-0.1-0.3-0.3-0.5-0.5c0.3,0,0.6,0,0.8,0
			c1.7,0,3.3-0.1,3.8-1.2c0.7-1.1-0.1-2.5-0.9-3.9c-0.1-0.2-0.2-0.4-0.4-0.7c0.3,0.1,0.5,0.2,0.8,0.2c1.7,0.5,3.1,1,4,0.2
			c1-0.8,0.8-2.3,0.5-3.9c0-0.2-0.1-0.5-0.1-0.8c0.1,0.3,0.3,0.4,0.5,0.6c1.4,1.1,2.6,2,3.7,1.6s1.5-1.9,1.9-3.6
			c0-0.3,0.1-0.6,0.1-0.8c0.2,0.2,0.3,0.5,0.4,0.7c0.9,1.5,1.7,2.8,3,2.8s2.1-1.3,3-2.8c0.1-0.2,0.3-0.4,0.4-0.7
			c0.2,0.2,0.3,0.5,0.3,0.8c0.4,1.7,0.7,3.1,1.9,3.5s2.4-0.5,3.7-1.6c0.2-0.1,0.4-0.2,0.6-0.4c0,0.3-0.1,0.6-0.1,0.8
			c-0.3,1.7-0.5,3.2,0.5,3.9c1,0.8,2.4,0.4,4-0.2c0.2-0.1,0.5-0.2,0.8-0.2c-0.1,0.2-0.3,0.5-0.4,0.7c-0.8,1.5-1.6,2.8-0.9,3.9
			c0.7,1.1,2.2,1.1,3.8,1.2c0.2,0,0.5,0,0.8,0c-0.2,0.2-0.4,0.3-0.5,0.5c-1.3,1.2-2.5,2.1-2.2,3.4c0.1,0.6,0.5,1.1,1,1.4h-7.5
			c-0.7-4.5-4.5-7.9-9.1-7.9s-8.5,3.4-9.1,7.9h-7.5c0.5-0.3,0.9-0.8,1-1.4C34.7,19.9,33.6,18.9,32.4,17.8z M56.5,22.6H43.7
			c0.6-3.1,3.4-5.2,6.4-5.2C53.2,17.4,55.9,19.5,56.5,22.6z M15.9,77.8v-42h5.2V70l0,0l0,0v7.9L15.9,77.8L15.9,77.8z M26.4,35.8
			v18.4c0,1.5,1.2,2.7,2.7,2.7h42.1c1.5,0,2.7-1.2,2.7-2.7V35.8h2.7v27.6H23.8V35.8H26.4z M71.1,54.1h-5.2v-5.2
			c0-1.5-1.2-2.7-2.7-2.7H37c-1.5,0-2.7,1.2-2.7,2.7v5.2h-5.2V35.8h42.1L71.1,54.1L71.1,54.1z M63.2,54.1H37v-5.2h26.3L63.2,54.1
			L63.2,54.1z M23.8,68.6V66h52.6v2.7H23.8z M84.3,77.8h-5.2v-42h5.2V77.8z M85.6,33.1H13.3v-7.9H87v7.9H85.6z"/>
		<path class="st0" d="M21.2,27.9h-2.7c-0.7,0-1.3,0.6-1.3,1.3c0,0.7,0.6,1.3,1.3,1.3h2.7c0.7,0,1.3-0.6,1.3-1.3
			C22.5,28.5,21.9,27.9,21.2,27.9z"/>
		<path class="st0" d="M39.6,27.9H26.4c-0.7,0-1.3,0.6-1.3,1.3c0,0.7,0.6,1.3,1.3,1.3h13.1c0.7,0,1.3-0.6,1.3-1.3
			C40.9,28.5,40.4,27.9,39.6,27.9z"/>
		<path class="st0" d="M34.3,41H37c0.7,0,1.3-0.6,1.3-1.3c0-0.7-0.6-1.3-1.3-1.3h-2.7c-0.7,0-1.3,0.6-1.3,1.3
			C33.1,40.4,33.6,41,34.3,41z"/>
		<path class="st0" d="M42.2,41h13.1c0.7,0,1.3-0.6,1.3-1.3c0-0.7-0.6-1.3-1.3-1.3H42.2c-0.7,0-1.3,0.6-1.3,1.3
			C40.9,40.4,41.5,41,42.2,41z"/>
	</g>
</g>
</svg>
