<?xml version="1.0" encoding="utf-8"?>
<!-- Generator: Adobe Illustrator 22.1.0, SVG Export Plug-In . SVG Version: 6.00 Build 0)  -->
<svg version="1.1" id="Слой_1" xmlns="http://www.w3.org/2000/svg" xmlns:xlink="http://www.w3.org/1999/xlink" x="0px" y="0px"
	 viewBox="0 0 101 80" style="enable-background:new 0 0 101 80;" xml:space="preserve">
<style type="text/css">
	.st0{fill:#2EAB60;}
</style>
<g>
	<path class="st0" d="M88.4,27c-0.4,0-0.6,0-1,0c-3.1,0-6.4,0-9.7,0c0-0.6,0-1.2,0-1.5c-0.2-0.6-0.2-1-0.6-1.4
		c-1.4-1.4-2.7-2.7-4.1-4.1c-0.4-0.4-1-0.6-1.4-0.6c-1.2,0-2.3,0-3.7,0c-0.2,0-0.6-0.2-0.8-0.4c-1.5-2.2-3.5-2.9-6-2.9
		c-10.5,0-21.2,0-31.6,0c-2.3,0-4.5,0-6.8,0c-3.9,0-6.6,2.7-6.6,6.6s0,7.8,0,11.6c0,3.3,2.2,5.9,5.5,6.6c0.2,0,0.4,0,0.6,0.2
		c1.4,1,2.3,3.3,1.8,4.9c-1.5,4.9-3.3,9.7-4.9,14.6c-0.6,1.5-1,3.1-0.8,4.7c0,0.2-0.2,0.4-0.4,0.6C16.6,66.5,16,67.7,16,69
		c0,2.5,0,5.1,0,7.5c0,2.3,1.2,3.5,3.3,3.5c8.2,0,16.1,0,24.3,0c2.2,0,4.1,0,6.2,0c1.5,0,2.9-1.2,2.9-2.7c0-2.9,0-5.9,0-8.9
		c0-1.5-1.4-2.7-2.7-2.7c-0.8,0-1.4,0-2.2,0c-1.5,0.2-2.7-0.4-3.9-1.4c-0.4-0.4-0.8-0.8-1.2-1c-1.4-1.5-2.2-3.1-1.8-5.2
		c0.4-2.9,1.4-5.5,2.3-8.2c0.2-0.6,0.4-0.8,1-0.6c2.3,0,4.7,0,7,0c1,0,1.2-0.4,0.8-1.2c-1.4-2.2-1.4-4.5-1-7c0.4,0,0.6,0,0.8,0
		c3.3,0,6.8,0,10.1,0c1.9,0,3.7-0.8,5.1-2.3c0.2-0.2,0.6-0.4,1-0.4c1.2,0,2.5,0,3.7,0c0.6,0,1-0.2,1.4-0.6c1.4-1.4,2.7-2.7,4.1-4.1
		c0.4-0.4,0.6-1,0.6-1.5c0.2-0.6,0-1.2,0-1.9c3.3,0,6.6,0,9.9,0c0.4,0,0.6,0,1,0c0.8-0.2,1.2-0.8,1.2-1.5C89.8,27.6,89.3,27,88.4,27
		z M44.4,47.6c0-0.2,0-0.4,0.2-0.6c1-1.8,1.9-3.7,3.1-5.5c0.6-1,0.6-1,1.9-0.8c-0.4,2.3-0.2,4.5,0.6,6.8
		C48.2,47.6,46.3,47.6,44.4,47.6z M65.6,34c0,2.3-1.5,3.9-3.9,3.9c-4.7,0-9.2,0-13.8,0c-0.8,0-1.4,0.2-1.8,1
		c-1.5,2.7-3.1,5.2-4.5,7.9c-1.5,3.1-2.7,6.2-3.3,9.5c-0.8,4.1,0.6,7.4,3.9,9.9c0.2,0,0.2,0.2,0.6,0.4c-0.6,0-1,0-1.4,0
		c-2.7,0-5.2,0-7.9,0c-0.6,0-1.2,0.2-1.2,0.8c0,0.6,0.6,0.8,1,0.8c3.5,0,7,0,10.5,0c1.9,0,3.7,0,5.6,0c0,2.9,0,5.9,0,8.8
		c-10.3,0-20.6,0-30.9,0c0-2.9,0-5.6,0-8.8c0.4,0,1,0,1.5,0c1,0,1.9-1.4,1.4-2.2c-1.2-1.4-0.8-2.9-0.2-4.3c1.4-4.3,2.9-8.5,4.5-13
		c0.2-0.8,0.4-1.5,0.6-2.2c0.8-2.3,0.2-4.3-1-6.4c-0.2-0.4-0.4-0.8-0.8-1.2c0.4,0,0.6,0,1,0c3.7,0,7.4,0,11.1,0c0.2,0,0.6,0,0.6,0
		c0.2-0.2,0.6-0.4,0.6-0.6c0-0.2-0.4-0.6-0.6-0.8c-0.2-0.2-0.4,0-0.6,0c-4.5,0-8.9,0-13.6,0c-2.5,0-3.9-1.4-3.9-3.9
		c0-3.7,0-7.5,0-11.2c0-2.3,1.5-3.9,3.9-3.9c12.9,0,25.6,0,38.7,0c2.3,0,3.9,1.5,3.9,3.9C65.6,26.4,65.6,30.1,65.6,34z M74.9,30.9
		c0,0.4-0.2,0.8-0.4,1c-0.8,1-1.8,1.8-2.5,2.5c-0.4,0.4-0.8,0.6-1.4,0.6c-0.8,0-1.4,0-2.2,0c0-4.3,0-8.5,0-13c1,0,1.8,0,2.7,0
		c0.2,0,0.6,0.2,0.8,0.4c1,1,1.9,1.8,2.7,2.7c0.2,0.2,0.4,0.6,0.4,1C74.9,27.8,74.9,29.3,74.9,30.9z"/>
	<path class="st0" d="M37.8,24.1c-0.6,0.8-1.2,1.5-1.8,2.2c-1,1.2-1.9,2.5-2.9,3.7c-0.4,0.4-0.6,1-0.2,1.5c0.2,0.4,0.8,0.6,1.2,1
		c0.6-0.4,1-0.6,1.4-0.8c1.5-1.9,3.1-3.9,4.5-5.9c0.6-0.8,0.4-1.5-0.4-2.2C39.1,23.1,38.4,23.3,37.8,24.1z"/>
	<path class="st0" d="M30,24.1c-0.4,0.4-0.8,1-1,1.4c-1.2,1.5-2.3,2.9-3.3,4.5c-0.4,0.6-0.6,1.2-0.2,1.5c0.2,0.4,0.8,0.6,1.2,1
		c0.6-0.4,1-0.4,1.4-0.8c0.4-0.4,0.6-0.8,0.8-1.2c1.2-1.5,2.3-3.1,3.7-4.7c0.6-0.8,0.6-1.8-0.2-2.3C31.4,23.1,30.6,23.3,30,24.1z"/>
</g>
</svg>
