<?xml version="1.0" encoding="utf-8"?>
<!-- Generator: Adobe Illustrator 22.1.0, SVG Export Plug-In . SVG Version: 6.00 Build 0)  -->
<svg version="1.1" id="Слой_1" xmlns="http://www.w3.org/2000/svg" xmlns:xlink="http://www.w3.org/1999/xlink" x="0px" y="0px"
	 viewBox="0 0 101 80" style="enable-background:new 0 0 101 80;" xml:space="preserve">
<style type="text/css">
	.st0{fill:#2EAB61;}
</style>
<path class="st0" d="M63.9,73.6v4.5c0,0.8-0.7,1.5-1.5,1.5H32.1C14.5,79.7,0.3,65.5,0.3,47.9s14.2-31.8,31.8-31.8
	s31.8,14.2,31.8,31.8v7.6h34.9c0.8,0,1.5,0.7,1.5,1.5v21.2c0,0.8-0.7,1.5-1.5,1.5s-1.5-0.7-1.5-1.5v-4.5L63.9,73.6L63.9,73.6z
	 M60.9,76.7V47.9C60.9,32,48,19.1,32.1,19.1S3.3,32,3.3,47.9s12.9,28.8,28.8,28.8H60.9z M73,70.6v-3c0-0.8,0.7-1.5,1.5-1.5
	s1.5,0.7,1.5,1.5v3h9.1v-3c0-0.8,0.7-1.5,1.5-1.5s1.5,0.7,1.5,1.5v3h9.1V58.5H63.9v12.1H73z M71.1,31c0.3,0.8,0,1.7-0.8,2
	s-1.7,0-2-0.8c-2-4.6-4.9-8.8-8.4-12.3c-0.6-0.6-0.6-1.5,0-2.1s1.5-0.6,2.1,0C65.8,21.6,68.9,26.1,71.1,31z M32.1,67.6
	c-10.9,0-19.7-8.8-19.7-19.7s8.8-19.7,19.7-19.7S51.8,37,51.8,47.9S43,67.6,32.1,67.6z M32.1,64.6c9.2,0,16.7-7.5,16.7-16.7
	s-7.5-16.7-16.7-16.7s-16.7,7.5-16.7,16.7S22.9,64.6,32.1,64.6z M32.1,55.5c-4.2,0-7.6-3.4-7.6-7.6s3.4-7.6,7.6-7.6s7.6,3.4,7.6,7.6
	S36.3,55.5,32.1,55.5z M32.1,52.4c2.5,0,4.5-2,4.5-4.5s-2-4.5-4.5-4.5s-4.5,2-4.5,4.5S29.6,52.4,32.1,52.4z"/>
</svg>
