<?xml version="1.0" encoding="utf-8"?>
<!-- Generator: Adobe Illustrator 22.1.0, SVG Export Plug-In . SVG Version: 6.00 Build 0)  -->
<svg version="1.1" id="Слой_1" xmlns="http://www.w3.org/2000/svg" xmlns:xlink="http://www.w3.org/1999/xlink" x="0px" y="0px"
	 viewBox="0 0 101 80" style="enable-background:new 0 0 101 80;" xml:space="preserve">
<style type="text/css">
	.st0{fill:#31AC61;}
</style>
<g>
	<path class="st0" d="M75.4,2v11.1H27h-5.6c-3.8,0-6.9,3.2-6.9,6.9v52.6c0,0.1,0,0.2,0,0.3c0.2,3.7,3.2,6.6,6.9,6.6h4.2v-11H74h5.5
		c3.8,0,6.9-3.2,6.9-6.9V14.5V8.9c0-3.8-3.2-6.9-6.9-6.9C79.5,2,75.4,2,75.4,2z M78.2,4.8h1.4c2.3,0,4.1,1.8,4.1,4.1v5.5v41.8
		c-1.2-0.9-2.5-1.7-4.1-1.7h-1.4V4.8z M21.4,15.9h5.5h48.4v41.5h4.2c2.3,0,4.1,1.8,4.1,4.1s-1.8,4.1-4.1,4.1H74H22.2h-0.8
		c-1.5,0-2.9,0.5-4.1,1.4V20C17.4,17.7,19.2,15.9,21.4,15.9z M27,21.3c-0.8,0-1.4,0.6-1.4,1.4v36c0,0.8,0.6,1.4,1.4,1.4h41.5
		c0.8,0,1.4-0.6,1.4-1.4v-36c0-0.8-0.6-1.4-1.4-1.4H39.4v2.9h5.5v8.3h2.9v-8.3h19.3v16.5h-8.2v-11H56v11h-5.5v2.9h16.6v13.8h-2.7
		v-9.7c0-0.8-0.6-1.4-1.4-1.4H52c-0.8,0-1.4,0.6-1.4,1.4v9.6h-2.7V38.1H45v19.2H28.4v-11h11v-2.9h-11V24.2h5.5v-2.9H27z M53.4,49.1
		h8.2v8.2h-8.2V49.1z M21.4,68.5h0.8h0.6v8.2h-1.4c-2.3,0-4.1-1.8-4.1-4.1C17.4,70.3,19.2,68.5,21.4,68.5z"/>
</g>
</svg>
