<?xml version="1.0" encoding="utf-8"?>
<!-- Generator: Adobe Illustrator 16.0.0, SVG Export Plug-In . SVG Version: 6.00 Build 0)  -->
<!DOCTYPE svg PUBLIC "-//W3C//DTD SVG 1.1//EN" "http://www.w3.org/Graphics/SVG/1.1/DTD/svg11.dtd">
<svg version="1.1" id="Layer_1" xmlns="http://www.w3.org/2000/svg" xmlns:xlink="http://www.w3.org/1999/xlink" x="0px" y="0px"
	 width="70px" height="70px" viewBox="0 0 70 70" enable-background="new 0 0 70 70" xml:space="preserve">
<g>
	<path d="M58.28,15.32c-0.681,0-1.22-0.54-1.22-1.221c0-0.652,0.539-1.22,1.22-1.22c0.651,0,1.19,0.568,1.19,1.22
		C59.471,14.78,58.932,15.32,58.28,15.32L58.28,15.32z M58.28,10.467c-2.014,0-3.658,1.646-3.658,3.632
		c0,2.015,1.645,3.633,3.658,3.633c1.984,0,3.629-1.618,3.629-3.633C61.909,12.113,60.265,10.467,58.28,10.467L58.28,10.467z
		 M14.076,42.79c-0.68,0-1.219-0.54-1.219-1.192c0-0.681,0.539-1.22,1.219-1.22c0.652,0,1.219,0.539,1.219,1.22
		C15.295,42.25,14.728,42.79,14.076,42.79L14.076,42.79z M14.076,37.938c-2.013,0-3.629,1.646-3.629,3.66
		c0,1.986,1.616,3.633,3.629,3.633s3.629-1.646,3.629-3.633C17.705,39.583,16.089,37.938,14.076,37.938L14.076,37.938z
		 M63.61,19.576c0,0.313-0.283,0.596-0.624,0.596H7.016c-0.34,0-0.595-0.284-0.595-0.596V8.651c0-0.341,0.255-0.596,0.595-0.596
		h2.92v4.229c0,0.681,0.567,1.22,1.219,1.22c0.681,0,1.219-0.539,1.219-1.22V8.055h3.544v1.334c0,0.652,0.539,1.192,1.191,1.192
		c0.681,0,1.219-0.54,1.219-1.192V8.055h3.544v4.229c0,0.681,0.539,1.22,1.219,1.22c0.652,0,1.191-0.539,1.191-1.22V8.055h3.543
		v1.334c0,0.652,0.539,1.192,1.22,1.192c0.652,0,1.219-0.54,1.219-1.192V8.055h3.517v4.229c0,0.681,0.538,1.22,1.219,1.22
		s1.22-0.539,1.22-1.22V8.055h3.544v1.334c0,0.652,0.539,1.192,1.19,1.192c0.681,0,1.22-0.54,1.22-1.192V8.055h3.544v4.229
		c0,0.681,0.539,1.22,1.22,1.22c0.652,0,1.19-0.539,1.19-1.22V8.055h3.545v1.334c0,0.652,0.538,1.192,1.219,1.192
		c0.652,0,1.22-0.54,1.22-1.192V8.055h8.874c0.341,0,0.624,0.255,0.624,0.596V19.576z M58.677,64.272
		c0.284,0.085,0.539,0.113,0.794,0.113c1.333,0,2.58-0.88,2.921-2.241l2.835-10.557c0.426-1.59-0.538-3.264-2.126-3.689
		l-29.347-7.946l30.963-17.878c0.142-0.085,0.255-0.199,0.34-0.312c0.596-0.54,0.964-1.334,0.964-2.186V8.651
		c0-1.674-1.36-3.037-3.005-3.037H6.987c-1.645,0-3.005,1.362-3.005,3.037v10.925c0,1.646,1.361,3.008,3.034,3.008h22.854
		L5.513,36.688c-0.708,0.397-1.219,1.05-1.417,1.845c-0.227,0.766-0.113,1.589,0.284,2.299l5.472,9.449
		c0.454,0.767,1.191,1.277,2.013,1.447h0.028C27.487,55.93,43.082,60.101,58.677,64.272L58.677,64.272z M15.862,50.281l12.958-7.463
		c-0.085,0.596,0.283,1.164,0.879,1.305c0.113,0.029,0.198,0.057,0.312,0.057c0.539,0,1.021-0.368,1.163-0.907l0.368-1.391
		l3.431,0.908l-1.134,4.2c-0.17,0.652,0.227,1.305,0.851,1.504c0.113,0.028,0.227,0.028,0.34,0.028c0.511,0,1.021-0.369,1.162-0.908
		l1.106-4.2l3.431,0.937l-0.368,1.391c-0.171,0.624,0.198,1.306,0.851,1.476c0.113,0.028,0.198,0.028,0.312,0.028
		c0.539,0,1.021-0.341,1.162-0.88l0.369-1.391l3.431,0.938l-1.134,4.171c-0.17,0.653,0.227,1.306,0.879,1.476
		c0.085,0.029,0.198,0.057,0.312,0.057c0.539,0,1.021-0.369,1.163-0.908l1.105-4.172l3.431,0.938l-0.368,1.334
		c-0.17,0.652,0.198,1.333,0.851,1.504c0.113,0.027,0.227,0.027,0.312,0.027c0.539,0,1.021-0.34,1.191-0.879l0.34-1.362l3.402,0.908
		l-1.105,4.171c-0.17,0.625,0.198,1.307,0.851,1.477c0.113,0.027,0.198,0.027,0.312,0.027c0.539,0,1.021-0.34,1.163-0.879
		l1.105-4.144l2.155,0.567c0.34,0.086,0.51,0.426,0.425,0.738L60.066,61.52c-0.057,0.199-0.198,0.313-0.283,0.369
		c-0.086,0.028-0.256,0.113-0.454,0.057C44.84,58.058,30.352,54.17,15.862,50.281L15.862,50.281z M12.771,49.289
		c-0.198,0.113-0.369,0.084-0.454,0.057c-0.085-0.029-0.255-0.086-0.369-0.284l-5.472-9.45c-0.142-0.283-0.057-0.652,0.227-0.822
		l7.712-4.456l0.652,1.164c0.227,0.369,0.652,0.596,1.049,0.596c0.227,0,0.426-0.058,0.624-0.17
		c0.567-0.313,0.766-1.079,0.425-1.646l-0.652-1.164l3.063-1.759l2.126,3.661c0.227,0.396,0.624,0.624,1.049,0.624
		c0.198,0,0.397-0.058,0.595-0.171c0.596-0.34,0.794-1.078,0.454-1.646l-2.126-3.689l3.063-1.76l0.68,1.135
		c0.199,0.397,0.624,0.625,1.049,0.625c0.198,0,0.396-0.057,0.595-0.17c0.567-0.341,0.766-1.079,0.454-1.646l-0.681-1.164
		l3.063-1.759l2.127,3.661c0.227,0.397,0.623,0.596,1.049,0.596c0.198,0,0.425-0.029,0.596-0.142
		c0.595-0.34,0.794-1.079,0.453-1.674l-2.126-3.661l2.722-1.589h0.453l0.567,0.965c0.227,0.397,0.624,0.625,1.049,0.625
		c0.198,0,0.397-0.057,0.596-0.17c0.511-0.284,0.709-0.88,0.567-1.419h4.111l0.283,0.511c0.227,0.397,0.624,0.596,1.049,0.596
		c0.199,0,0.426-0.057,0.596-0.142c0.369-0.227,0.567-0.567,0.624-0.965h14.348L12.771,49.289z"/>
</g>
</svg>
