<?xml version="1.0" encoding="utf-8"?>
<!-- Generator: Adobe Illustrator 16.0.0, SVG Export Plug-In . SVG Version: 6.00 Build 0)  -->
<!DOCTYPE svg PUBLIC "-//W3C//DTD SVG 1.1//EN" "http://www.w3.org/Graphics/SVG/1.1/DTD/svg11.dtd">
<svg version="1.1" id="Layer_1" xmlns="http://www.w3.org/2000/svg" xmlns:xlink="http://www.w3.org/1999/xlink" x="0px" y="0px"
	 width="70px" height="70px" viewBox="0 0 70 70" enable-background="new 0 0 70 70" xml:space="preserve">
<g>
	<path d="M29.811,59.561H9.226c-1.899,0-3.459-1.561-3.459-3.461V4.536c0-1.901,1.56-3.462,3.459-3.462h43.014
		c1.899,0,3.459,1.561,3.459,3.462v30.422c0.567,0.369,1.134,0.767,1.645,1.164l1.361-1.362c0.879-0.88,2.269-0.852,3.119,0
		l1.36,1.333c0.851,0.881,0.851,2.271,0,3.123l-1.673,1.674c1.786,2.895,2.723,6.215,2.723,9.621
		c0,10.158-8.28,18.416-18.402,18.416C38.969,68.926,32.958,65.152,29.811,59.561L29.811,59.561z M52.92,33.51V4.337
		c0-0.284-0.199-0.482-0.454-0.482H9.027c-0.284,0-0.482,0.198-0.482,0.482v51.961c0,0.254,0.198,0.482,0.482,0.482h19.479
		c-0.709-1.959-1.078-4.088-1.078-6.271c0-8.996,6.493-16.688,15.312-18.163v-1.164h-0.511c-1.219-0.028-2.211-1.021-2.239-2.242
		V27.04c0-1.22,1.049-2.214,2.239-2.214h7.202c1.191,0,2.24,0.994,2.24,2.214v1.901c-0.028,1.22-1.021,2.213-2.24,2.242h-0.51v1.164
		C50.311,32.574,51.644,32.971,52.92,33.51L52.92,33.51z M60.264,36.916l-0.993,1.021c0.228,0.256,0.454,0.51,0.681,0.766
		l1.05-1.049L60.264,36.916z M42.627,28.544h6.408v-1.079h-6.408V28.544z M45.377,31.183v0.908c0.142,0,0.313,0,0.454,0
		s0.312,0,0.453,0v-0.908H45.377z M45.831,66.287c8.705,0,15.765-7.094,15.765-15.777c0-8.713-7.06-15.779-15.765-15.779
		S30.065,41.797,30.065,50.51C30.065,59.193,37.154,66.287,45.831,66.287L45.831,66.287z M37.495,39.271
		c4.593-3.406,10.52-3.69,15.425-0.768c4.962,2.953,7.57,8.373,6.72,14.076c-1.814,12.289-17.637,16.289-25.065,6.271
		C29.981,52.637,31.285,43.896,37.495,39.271L37.495,39.271z M47.674,52.863c-0.992,0.795-2.325,0.881-3.402,0.229
		c-1.077-0.625-1.616-1.789-1.418-3.008c0.369-2.641,3.771-3.492,5.359-1.334c0.34,0.453,0.538,0.965,0.596,1.531
		c0,0.285-0.028,0.455-0.058,0.711l2.438,1.531c0.908,0.596,0.482,2.016-0.595,2.016c-0.057,0-0.113,0-0.17-0.029
		c-0.284-0.027-0.681-0.313-0.908-0.453C48.638,53.488,48.581,53.432,47.674,52.863L47.674,52.863z M45.803,42.705
		c-0.596,0-1.077-0.482-1.077-1.107v-2.27c0-0.029,0-0.086,0-0.113c-1.248,0.113-2.468,0.453-3.63,0.965
		c0.028,0.057,0.057,0.084,0.057,0.113l1.134,1.957c0.426,0.738-0.085,1.646-0.936,1.646c-0.368,0-0.737-0.199-0.936-0.539
		l-1.134-1.986c-0.028-0.029-0.028-0.086-0.057-0.113c-1.021,0.709-1.957,1.617-2.694,2.668c0.057,0,0.086,0.027,0.143,0.057
		l1.956,1.135c0.539,0.313,0.709,0.965,0.396,1.504c-0.283,0.51-0.964,0.682-1.474,0.396l-1.957-1.135
		c-0.057-0.027-0.085-0.057-0.142-0.113c-0.425,0.938-0.737,1.986-0.879,3.094c-0.028,0.197-0.057,0.396-0.085,0.596
		c0.057-0.029,0.113-0.029,0.142-0.029h2.269c0.596,0,1.077,0.482,1.077,1.08c0,0.623-0.481,1.105-1.077,1.105h-2.269
		c-0.057,0-0.113,0-0.17-0.027c0.113,1.305,0.454,2.553,0.964,3.689c0.057-0.029,0.113-0.086,0.17-0.115l1.957-1.135
		c0.51-0.283,1.19-0.113,1.474,0.398c0.313,0.539,0.143,1.191-0.396,1.504l-1.956,1.135c-0.057,0.027-0.114,0.057-0.171,0.057
		c0.737,1.021,1.645,1.93,2.723,2.668c0.028-0.057,0.028-0.086,0.057-0.113l1.134-1.986c0.313-0.512,0.964-0.682,1.475-0.398
		c0.539,0.313,0.709,0.965,0.396,1.504l-1.134,1.959c0,0.027-0.028,0.057-0.057,0.084c0.113,0.057,0.198,0.086,0.283,0.143
		c1.078,0.453,2.212,0.738,3.347,0.879c0-0.057,0-0.113,0-0.141v-2.271c0-0.623,0.481-1.105,1.077-1.105s1.105,0.482,1.105,1.105
		v2.271c0,0.057-0.028,0.113-0.028,0.17c0.454-0.029,0.907-0.113,1.361-0.199c0.822-0.17,1.616-0.426,2.325-0.766
		c-0.028-0.057-0.085-0.113-0.113-0.17l-1.135-1.959c-0.283-0.539-0.113-1.191,0.397-1.504c0.51-0.283,1.19-0.113,1.502,0.398
		l1.106,1.986c0.057,0.027,0.057,0.084,0.085,0.141c0.822-0.596,1.56-1.305,2.212-2.1c0.17-0.199,0.312-0.396,0.453-0.596
		c-0.17-0.057-0.312-0.17-0.481-0.256c-0.539-0.313-1.05-0.623-1.616-0.936c-0.993-0.568-0.539-2.072,0.595-2.043
		c0.057,0,0.114,0.027,0.171,0.027c0.368,0.086,1.389,0.738,1.729,0.938l0.566,0.311c0.028,0.029,0.086,0.057,0.114,0.086
		c0.538-1.164,0.851-2.385,0.964-3.66c-0.028,0.027-0.085,0.027-0.142,0.027h-2.269c-0.596,0-1.078-0.482-1.078-1.105
		c0-0.598,0.482-1.08,1.078-1.08h2.269c0.057,0,0.113,0,0.142,0.029c-0.113-1.277-0.426-2.498-0.964-3.66
		c-0.028,0.027-0.086,0.057-0.114,0.084c-0.566,0.313-1.105,0.625-1.645,0.938c-0.198,0.113-0.453,0.283-0.68,0.311
		c-0.057,0-0.086,0.029-0.143,0.029c-1.077,0.086-1.616-1.447-0.595-2.043c0.283-0.143,1.56-0.965,2.126-1.191
		c-0.17-0.199-0.312-0.426-0.481-0.625c-0.681-0.822-1.418-1.504-2.212-2.072c-0.028,0.057-0.028,0.113-0.085,0.143l-1.106,1.986
		c-0.198,0.34-0.566,0.539-0.964,0.539c-0.822,0-1.332-0.908-0.936-1.646l1.135-1.957c0.028-0.057,0.057-0.086,0.113-0.143
		c-1.191-0.539-2.438-0.852-3.687-0.965c0,0.057,0.028,0.113,0.028,0.143v2.27C46.908,42.223,46.398,42.705,45.803,42.705
		L45.803,42.705z M46.625,50.65c0.113-0.738-0.709-1.221-1.305-0.795c-0.17,0.143-0.283,0.313-0.312,0.539
		c-0.113,0.738,0.709,1.221,1.304,0.795C46.483,51.049,46.597,50.877,46.625,50.65L46.625,50.65z M20.737,27.863
		c-0.766,0-1.39-0.624-1.39-1.391c0-0.766,0.624-1.391,1.39-1.391h14.092c0.766,0,1.39,0.625,1.39,1.391
		c0,0.767-0.624,1.391-1.39,1.391H20.737z M20.737,17.164c-0.766,0-1.39-0.624-1.39-1.391c0-0.766,0.624-1.39,1.39-1.39h27.872
		c0.794,0,1.39,0.624,1.39,1.39c0,0.767-0.596,1.391-1.39,1.391H20.737z M20.737,38.25c-0.766,0-1.39-0.596-1.39-1.391
		c0-0.768,0.624-1.363,1.39-1.363h7.145c0.766,0,1.391,0.595,1.391,1.363c0,0.795-0.625,1.391-1.391,1.391H20.737z M13.989,38.25
		c-0.766,0-1.39-0.596-1.39-1.391c0-0.768,0.624-1.363,1.39-1.363h1.134c0.766,0,1.39,0.595,1.39,1.363
		c0,0.795-0.624,1.391-1.39,1.391H13.989z M13.989,27.863c-0.766,0-1.39-0.624-1.39-1.391c0-0.766,0.624-1.391,1.39-1.391h1.134
		c0.766,0,1.39,0.625,1.39,1.391c0,0.767-0.624,1.391-1.39,1.391H13.989z M13.989,17.164c-0.766,0-1.39-0.624-1.39-1.391
		c0-0.766,0.624-1.39,1.39-1.39h1.134c0.766,0,1.39,0.624,1.39,1.39c0,0.767-0.624,1.391-1.39,1.391H13.989z"/>
</g>
</svg>
