<?xml version="1.0" encoding="utf-8"?>
<!-- Generator: Adobe Illustrator 22.1.0, SVG Export Plug-In . SVG Version: 6.00 Build 0)  -->
<svg version="1.1" id="Слой_1" xmlns="http://www.w3.org/2000/svg" xmlns:xlink="http://www.w3.org/1999/xlink" x="0px" y="0px"
	 viewBox="0 0 101 80" style="enable-background:new 0 0 101 80;" xml:space="preserve">
<style type="text/css">
	.st0{fill:#2EAB60;}
</style>
<g>
	<path class="st0" d="M91.3,71.5h-5.7c0,0-0.2,0-0.2,0.2c-0.2,0.6-0.4,1.3-0.6,1.9c-1.5,4-5.5,6.7-9.9,6.3c-4.2-0.2-8-3.6-8.8-7.8
		c0-0.4-0.2-0.6-0.8-0.6c-8.2,0-16.2,0-24.4,0c-0.2,0-0.2,0-0.4,0c0,0-0.2,0-0.2,0.2c0,0.4-0.2,0.6-0.2,0.8C39.2,77,35.2,80,30.4,80
		c-4.4,0-8.2-3.4-9.3-7.8c0-0.6-0.2-0.6-0.6-0.6c-2.5,0-7.2,0-10.3,0c-1.7,0-3.2-1.5-3.2-3.2V26.9c0-1.7,1.5-3.2,3.2-3.2h56.2
		c1.3,0,2.3,1.1,2.3,2.3v5.9c0,0,0,0.2,0.2,0.2s0.4,0,0.6,0c1.7,0,3.2,0,4.8,0c0.4,0,0.6,0.2,0.8,0.4c5.7,5.7,11.4,11.2,16.9,16.9
		c0.2,0.2,0.4,0.6,0.4,1.1c0,2.7,0,5.5,0,8.2c0,0.4,0,0.6,0.4,1.1c0.6,0.6,1.1,1.3,1.1,2.1c0,1.3,0,2.7,0,4c0,0.8-0.4,1.7-1.1,2.3
		c-0.2,0.2-0.4,0.4-0.4,0.6c0,0.4,0,1.1,0,1.5C92.5,70.9,92.1,71.5,91.3,71.5z M9.9,54.7h55.8c0,0,0.2,0,0.2-0.2V28.1
		c0-0.8-0.6-1.5-1.5-1.5H11.4c-0.8,0-1.7,0.6-1.7,1.5L9.9,54.7C9.7,54.5,9.9,54.7,9.9,54.7z M11.4,68.6h9.7c0,0,0.2,0,0.2-0.2
		c1.9-5.9,5.1-8.4,10.3-8.2c1.3,0,2.3,0.2,3.4,0.8c3.2,1.7,5.1,4.2,5.7,7.4c0,0,0,0.2,0.2,0.2H66c0,0,0.2,0,0.2-0.2V57.6
		c0,0,0-0.2-0.2-0.2h-56c0,0-0.2,0-0.2,0.2v9.5C9.7,68,10.6,68.6,11.4,68.6z M69.1,62.9c5.7-5.1,15-2.1,16.4,5.7c0,0,0,0.2,0.2,0.2
		h3.4c0.4,0,0.8-0.4,0.8-0.8v-1.7c0,0,0-0.2,0.2-0.2h1.1c0,0,0.2,0,0.2-0.2v-3.8c0,0,0-0.2-0.2-0.2H90c0,0-0.2,0-0.2-0.2v-9.5
		c0,0,0-0.2-0.2-0.2H68.9c0,0-0.2,0-0.2,0.2v10.5C68.7,62.9,68.9,62.9,69.1,62.9z M87.5,49c0.2,0,0.2-0.2,0.2-0.2l0,0
		c-4.4-4.4-8.8-8.8-13.5-13.5c-0.2-0.2-0.2-0.2-0.4-0.2c-1.5,0-3.2,0-4.6,0c0,0-0.2,0-0.2,0.2V49c0,0,0,0.2,0.2,0.2L87.5,49z
		 M68.7,70.1c0,4.8,5.1,8.6,10.3,6.3c1.3-0.6,2.5-1.7,2.9-3.2c2.3-5.3-1.5-10.1-6.3-10.1C71.9,63.1,68.7,66.3,68.7,70.1z M23.9,70.1
		c0,4.8,5.1,8.6,10.3,6.3c1.3-0.6,2.5-1.7,2.9-3.2c2.3-5.3-1.5-10.3-6.3-10.1C26.8,63.1,23.9,66.3,23.9,70.1z"/>
	<path class="st0" d="M14,40.6c0-2.3,0-4.4,0-6.7c0-2.7,1.7-4.4,4.6-4.4c2.5,0,5.3,0,7.8,0c2.7,0,4.6,1.7,4.6,4.4
		c0,4.4,0,9.1,0,13.5c0,2.7-2.1,4.6-4.8,4.4c-2.3-0.2-4.6-0.2-7,0c-2.9,0.2-5.1-1.7-5.1-4.4C14,45.2,14,42.9,14,40.6z M28.1,40.6
		c0-2.1,0-4.4,0-6.5c0-1.5-0.4-1.9-1.9-1.9c-2.5,0-5.1,0-7.6,0c-1.5,0-1.9,0.4-1.9,1.9c0,4.4,0,8.8,0,13.3c0,1.3,0.6,1.7,1.9,1.7
		c2.5,0,5.1,0,7.6,0c1.3,0,1.9-0.4,1.9-1.7C28.1,45.2,28.1,42.9,28.1,40.6z"/>
</g>
</svg>
