<?xml version="1.0" encoding="utf-8"?>
<!-- Generator: Adobe Illustrator 16.0.0, SVG Export Plug-In . SVG Version: 6.00 Build 0)  -->
<!DOCTYPE svg PUBLIC "-//W3C//DTD SVG 1.1//EN" "http://www.w3.org/Graphics/SVG/1.1/DTD/svg11.dtd">
<svg version="1.1" id="Layer_1" xmlns="http://www.w3.org/2000/svg" xmlns:xlink="http://www.w3.org/1999/xlink" x="0px" y="0px"
	 width="55px" height="25px" viewBox="0 0 55 25" enable-background="new 0 0 55 25" xml:space="preserve">
<g>
	<path fill="#00708C" d="M30.817,6.129L6.036,6.157v2.214l1.843,1.844h23.25C31.129,10.215,30.902,7.321,30.817,6.129L30.817,6.129z
		 M53.869,16.062L53.869,16.062v-0.738c0-0.822-0.057-2.44-2.467-3.348c-3.317-1.22-3.686-1.419-5.613-3.15
		c-1.163-1.022-3.176-2.725-4.48-3.86c-3.687-3.235-5.643-4.115-10.378-4.115H2.662C1.329,1.759,1.215,3.916,1.215,5.704
		c0,1.476,0,8.059,0,10.386L53.869,16.062z M32.717,11.691L32.717,11.691H7.283L4.561,8.995c0-2.951-0.028-3.661,0.34-4.313
		l27.277-0.028C32.235,5.505,32.717,11.691,32.717,11.691L32.717,11.691z M46.44,11.89L46.44,11.89c0,0-1.899,0-3.686,0
		c-6.238,0-8.251-2.412-8.251-2.412l-0.369-4.824c3.317,0,4.083,0.085,5.841,1.646C41.507,7.662,46.44,11.89,46.44,11.89
		L46.44,11.89z"/>
	<path fill="#414141" d="M52.849,15.097c-0.028-0.539-0.198-1.163-0.794-1.617c-0.766-0.597-2.58-0.937-3.232-1.05
		c0,0,1.361,0.964,1.588,2.1L52.849,15.097z"/>
	<path fill="#414141" d="M2.236,8.456h0.369l0.708,0.709v4.881c0,0,0.028,0.539-0.595,0.539H2.265L2.236,8.456z"/>
	<path fill="#414141" d="M45.846,24.149c1.984,0,3.601-1.617,3.601-3.604c0-1.986-1.616-3.604-3.601-3.604
		c-2.014,0-3.602,1.617-3.602,3.604C42.244,22.532,43.832,24.149,45.846,24.149L45.846,24.149z M45.846,22.22L45.846,22.22
		c-0.937,0-1.701-0.738-1.701-1.675s0.765-1.702,1.701-1.702c0.907,0,1.673,0.766,1.673,1.702S46.753,22.22,45.846,22.22
		L45.846,22.22z M40.77,21.17L40.77,21.17c0,0,0-0.426,0-0.625c0-1.135,0.369-2.156,0.993-3.008H15.279
		c0.624,0.852,0.992,1.873,0.992,3.008c0,0.199,0,0.397-0.028,0.625C23.587,21.17,40.77,21.17,40.77,21.17L40.77,21.17z
		 M0.762,17.537L0.762,17.537h6.38c-0.624,0.852-0.993,1.873-0.993,3.008c0,0.199,0,0.397,0.028,0.568l-5.671-0.738v-2.44
		L0.762,17.537z M50.893,20.545L50.893,20.545c0-1.135-0.369-2.156-0.992-3.008h4.593v1.249c0,0,0.057,1.986-3.601,2.327
		C50.893,21.113,50.893,20.744,50.893,20.545L50.893,20.545z M11.196,24.149L11.196,24.149c2.013,0,3.629-1.617,3.629-3.604
		c0-1.986-1.616-3.604-3.629-3.604c-1.985,0-3.601,1.617-3.601,3.604C7.595,22.532,9.211,24.149,11.196,24.149L11.196,24.149z
		 M11.196,22.22L11.196,22.22c-0.907,0-1.673-0.738-1.673-1.675s0.766-1.702,1.673-1.702c0.936,0,1.701,0.766,1.701,1.702
		S12.132,22.22,11.196,22.22L11.196,22.22z"/>
</g>
</svg>
