<svg xmlns="http://www.w3.org/2000/svg" width="16.604" height="16.604" viewBox="0 0 16.604 16.604">
  <path id="air-conditioner" d="M14.983,0H1.622A1.623,1.623,0,0,0,0,1.622V7.329A1.623,1.623,0,0,0,1.622,8.951H14.983A1.623,1.623,0,0,0,16.6,7.329V1.622A1.623,1.623,0,0,0,14.983,0ZM4.486,1.3h7.632v.93a.325.325,0,0,1-.324.324H4.811a.325.325,0,0,1-.324-.324ZM15.307,7.329a.325.325,0,0,1-.324.324H1.622A.325.325,0,0,1,1.3,7.329V1.622A.325.325,0,0,1,1.622,1.3H3.189v.93A1.623,1.623,0,0,0,4.811,3.848h6.983a1.623,1.623,0,0,0,1.622-1.622V1.3h1.568a.325.325,0,0,1,.324.324ZM13.416,5.751a.649.649,0,0,1-.649.649H3.838a.649.649,0,1,1,0-1.3h8.929a.649.649,0,0,1,.649.649Zm-8.481,7.2a2.455,2.455,0,0,1,0,3.468.649.649,0,0,1-.917-.917,1.157,1.157,0,0,0,0-1.634,2.451,2.451,0,0,1,0-3.468.649.649,0,0,1,.917.917A1.155,1.155,0,0,0,4.934,12.946Zm3.827,0a2.455,2.455,0,0,1,0,3.468.649.649,0,0,1-.917-.917,1.157,1.157,0,0,0,0-1.634,2.451,2.451,0,0,1,0-3.468.649.649,0,0,1,.917.917A1.155,1.155,0,0,0,8.761,12.946Zm3.608,0a2.455,2.455,0,0,1,0,3.468.649.649,0,1,1-.917-.917,1.157,1.157,0,0,0,0-1.634,2.451,2.451,0,0,1,0-3.468.649.649,0,0,1,.917.917A1.155,1.155,0,0,0,12.369,12.946Zm0,0" fill="#fbb040"/>
</svg>
