<svg xmlns="http://www.w3.org/2000/svg" width="14.23" height="19" viewBox="0 0 14.23 19">
  <g id="energy" transform="translate(-76 143)">
    <path id="Path_44" data-name="Path 44" d="M13.673,7.751H9.553L10.646.642A.557.557,0,0,0,9.691.175L.151,10.311a.557.557,0,0,0,.405.938H4.678L3.584,18.359a.557.557,0,0,0,.955.466L14.079,8.689a.557.557,0,0,0-.405-.938ZM4.957,16.757l.92-5.98a.557.557,0,0,0-.55-.641H1.845L9.274,2.243l-.92,5.98a.557.557,0,0,0,.55.641h3.481Z" transform="translate(76 -143)" fill="#fbb040"/>
  </g>
</svg>
