<svg xmlns="http://www.w3.org/2000/svg" width="17" height="17" viewBox="0 0 17 17">
  <g id="settings_1_" data-name="settings (1)" transform="translate(0)">
    <path id="Path_51" data-name="Path 51" d="M9.033,17H7.967A1.567,1.567,0,0,1,6.4,15.435v-.361a6.863,6.863,0,0,1-1.066-.442l-.256.256a1.565,1.565,0,0,1-2.213,0l-.754-.754a1.565,1.565,0,0,1,0-2.213l.256-.256A6.864,6.864,0,0,1,1.926,10.6H1.565A1.567,1.567,0,0,1,0,9.033V7.967A1.567,1.567,0,0,1,1.565,6.4h.361a6.865,6.865,0,0,1,.442-1.066L2.113,5.08a1.565,1.565,0,0,1,0-2.213l.754-.754a1.565,1.565,0,0,1,2.213,0l.256.256A6.869,6.869,0,0,1,6.4,1.926V1.565A1.567,1.567,0,0,1,7.967,0H9.033A1.567,1.567,0,0,1,10.6,1.565v.361a6.863,6.863,0,0,1,1.066.442l.256-.256a1.565,1.565,0,0,1,2.213,0l.754.754a1.565,1.565,0,0,1,0,2.213l-.256.256A6.864,6.864,0,0,1,15.074,6.4h.361A1.567,1.567,0,0,1,17,7.967V9.033A1.567,1.567,0,0,1,15.435,10.6h-.361a6.865,6.865,0,0,1-.442,1.066l.256.256a1.565,1.565,0,0,1,0,2.213l-.754.754a1.565,1.565,0,0,1-2.213,0l-.256-.256a6.87,6.87,0,0,1-1.066.442v.361A1.567,1.567,0,0,1,9.033,17ZM5.5,13.586a5.871,5.871,0,0,0,1.522.632A.5.5,0,0,1,7.4,14.7v.735A.57.57,0,0,0,7.967,16H9.033a.57.57,0,0,0,.569-.569V14.7a.5.5,0,0,1,.374-.482,5.871,5.871,0,0,0,1.522-.632.5.5,0,0,1,.606.077l.521.521a.569.569,0,0,0,.8,0l.755-.755a.569.569,0,0,0,0-.8l-.521-.521a.5.5,0,0,1-.077-.606,5.87,5.87,0,0,0,.632-1.522A.5.5,0,0,1,14.7,9.6h.735A.57.57,0,0,0,16,9.034V7.967a.57.57,0,0,0-.569-.569H14.7a.5.5,0,0,1-.482-.374A5.871,5.871,0,0,0,13.586,5.5a.5.5,0,0,1,.077-.606l.521-.521a.569.569,0,0,0,0-.8l-.755-.755a.569.569,0,0,0-.8,0l-.521.521a.5.5,0,0,1-.606.077,5.871,5.871,0,0,0-1.522-.632A.5.5,0,0,1,9.6,2.3V1.565A.57.57,0,0,0,9.034,1H7.967a.57.57,0,0,0-.569.569V2.3a.5.5,0,0,1-.374.482A5.871,5.871,0,0,0,5.5,3.414.5.5,0,0,1,4.9,3.338l-.521-.521a.569.569,0,0,0-.8,0l-.755.755a.569.569,0,0,0,0,.8l.521.521a.5.5,0,0,1,.077.606,5.87,5.87,0,0,0-.632,1.522A.5.5,0,0,1,2.3,7.4H1.565A.57.57,0,0,0,1,7.967V9.033a.57.57,0,0,0,.569.569H2.3a.5.5,0,0,1,.482.374A5.871,5.871,0,0,0,3.414,11.5a.5.5,0,0,1-.077.606l-.521.521a.569.569,0,0,0,0,.8l.755.755a.569.569,0,0,0,.8,0l.521-.521a.5.5,0,0,1,.606-.076Z" fill="#fbb040"/>
    <path id="Path_52" data-name="Path 52" d="M148.3,152a3.7,3.7,0,1,1,3.7-3.7A3.7,3.7,0,0,1,148.3,152Zm0-6.4a2.7,2.7,0,1,0,2.7,2.7A2.706,2.706,0,0,0,148.3,145.6Z" transform="translate(-139.799 -139.799)" fill="#fbb040"/>
  </g>
</svg>
