<svg id="glass" xmlns="http://www.w3.org/2000/svg" width="17" height="17" viewBox="0 0 17 17">
  <path id="Path_41" data-name="Path 41" d="M16.336,0H.664A.664.664,0,0,0,0,.664V16.336A.664.664,0,0,0,.664,17H16.336A.664.664,0,0,0,17,16.336V.664A.664.664,0,0,0,16.336,0Zm-8.5,15.672H1.328V3.984H7.836Zm7.836,0H9.164V3.984h6.508Zm0-13.016H1.328V1.328H15.672ZM2.851,13.485a.664.664,0,0,1,0-.939l2.523-2.523a.664.664,0,0,1,.939.939L3.79,13.485A.664.664,0,0,1,2.851,13.485Zm0-3.852a.664.664,0,0,1,0-.939L5.374,6.171a.664.664,0,0,1,.939.939L3.79,9.634A.664.664,0,0,1,2.851,9.634Zm7.836,3.852a.664.664,0,0,1,0-.939l2.523-2.523a.664.664,0,0,1,.939.939l-2.523,2.523A.664.664,0,0,1,10.687,13.485Zm0-3.852a.664.664,0,0,1,0-.939L13.21,6.171a.664.664,0,0,1,.939.939L11.626,9.634A.664.664,0,0,1,10.687,9.634Z" fill="#fbb040"/>
</svg>
