<svg xmlns="http://www.w3.org/2000/svg" width="15" height="15" viewBox="0 0 15 15">
  <path id="pipe_2_" data-name="pipe (2)" d="M14.414,7.236a.586.586,0,0,0-.586.586H10.811A1.173,1.173,0,0,1,9.639,6.65V3.691L9.053,3.33l-.586.361V6.65a2.346,2.346,0,0,0,2.344,2.344h3.018v1.9H9.053a.586.586,0,0,0-.586.586v2.344H6.533V8.35A2.346,2.346,0,0,0,4.189,6.006H1.172V4.1H5.947a.586.586,0,0,0,.586-.586V1.172H8.467v2.52c0,.324,1.172.324,1.172,0V1.172H9.7A.586.586,0,0,0,9.7,0H5.361a.586.586,0,0,0,0,1.172V2.93H1.172A.586.586,0,0,0,0,2.93V7.178a.586.586,0,0,0,1.172,0H4.189A1.173,1.173,0,0,1,5.361,8.35v5.479a.586.586,0,0,0,0,1.172H9.639a.586.586,0,0,0,0-1.172V12.07h4.189a.586.586,0,0,0,1.172,0V7.822A.586.586,0,0,0,14.414,7.236Zm0,0" fill="#bcbec0"/>
</svg>
