<svg xmlns="http://www.w3.org/2000/svg" width="17.243" height="17.212" viewBox="0 0 17.243 17.212">
  <g id="tap_1_" data-name="tap (1)" transform="translate(0 -0.457)">
    <path id="Path_45" data-name="Path 45" d="M14.276,5.3H7.341l0-1.228c0-.318.173-.662.453-.662h6.355a.507.507,0,0,0,.507-.507A2.449,2.449,0,0,0,12.214.457H4.607A3.19,3.19,0,0,0,1.522,3.748c-.013,2.637.037.575-.279,10.5A1.725,1.725,0,0,0,0,15.905v1.22a.507.507,0,0,0,.507.507H8.6a.507.507,0,0,0,.507-.507v-1.22A1.725,1.725,0,0,0,7.856,14.25L7.714,10.2a.59.59,0,0,1,.59-.611h4.046v1.431a.507.507,0,0,0,.507.507h2.779a.507.507,0,0,0,.507-.507V9.586h.592a.507.507,0,0,0,.507-.507V8.268A2.97,2.97,0,0,0,14.276,5.3ZM4.607,1.472h7.607a1.434,1.434,0,0,1,1.339.924H7.8A1.572,1.572,0,0,0,6.33,4.071l0,1.23h-3.8l.008-1.55a2.185,2.185,0,0,1,2.07-2.279ZM8.088,15.905v.713H1.015v-.713a.708.708,0,0,1,.707-.707H7.381A.708.708,0,0,1,8.088,15.905ZM15.13,10.51H13.365V9.586H15.13Zm1.1-1.939H8.3a1.6,1.6,0,0,0-1.6,1.661l.138,3.95H2.261l.25-7.868H14.276a1.954,1.954,0,0,1,1.952,1.952Z" transform="translate(0)" fill="#fbb040"/>
    <path id="Path_46" data-name="Path 46" d="M369.33,366.823a.508.508,0,0,0-.81,0,6.845,6.845,0,0,0-1.427,2.794,1.832,1.832,0,1,0,3.664,0A6.869,6.869,0,0,0,369.33,366.823Zm-.405,3.612a.818.818,0,0,1-.817-.817,4.909,4.909,0,0,1,.818-1.612,4.9,4.9,0,0,1,.817,1.612A.818.818,0,0,1,368.925,370.435Z" transform="translate(-354.678 -353.78)" fill="#fbb040"/>
  </g>
</svg>
