<svg xmlns="http://www.w3.org/2000/svg" width="14.885" height="16.936" viewBox="0 0 14.885 16.936">
  <g id="washing-machine" transform="translate(-31)">
    <g id="Group_82" data-name="Group 82" transform="translate(31)">
      <g id="Group_81" data-name="Group 81">
        <path id="Path_47" data-name="Path 47" d="M44.4,0H32.488A1.49,1.49,0,0,0,31,1.488V15.447a1.49,1.49,0,0,0,1.488,1.488H44.4a1.49,1.49,0,0,0,1.488-1.488V1.488A1.49,1.49,0,0,0,44.4,0Zm.5,15.447a.5.5,0,0,1-.5.5H32.488a.5.5,0,0,1-.5-.5V4.962h12.9Zm0-11.478h-12.9V1.488a.5.5,0,0,1,.5-.5H44.4a.5.5,0,0,1,.5.5Z" transform="translate(-31)" fill="#fff"/>
      </g>
    </g>
    <g id="Group_84" data-name="Group 84" transform="translate(41.915 1.985)">
      <g id="Group_83" data-name="Group 83">
        <path id="Path_48" data-name="Path 48" d="M362.488,60H361.5a.5.5,0,1,0,0,.992h.992a.5.5,0,0,0,0-.992Z" transform="translate(-361 -60)" fill="#fff"/>
      </g>
    </g>
    <g id="Group_86" data-name="Group 86" transform="translate(38.939 1.985)">
      <g id="Group_85" data-name="Group 85">
        <path id="Path_49" data-name="Path 49" d="M272.488,60H271.5a.5.5,0,1,0,0,.992h.992a.5.5,0,0,0,0-.992Z" transform="translate(-271 -60)" fill="#fff"/>
      </g>
    </g>
    <g id="Group_88" data-name="Group 88" transform="translate(33.977 5.954)">
      <g id="Group_87" data-name="Group 87">
        <path id="Path_50" data-name="Path 50" d="M129.931,184.493s0,0,0,0a4.446,4.446,0,1,0,0,.011s0,0,0,0Zm-4.466-3.5a3.488,3.488,0,0,1,3.425,2.925,2.185,2.185,0,0,1-.644-.292,3.171,3.171,0,0,0-3.527,0,2.182,2.182,0,0,1-2.427,0c-.053-.035-.108-.069-.163-.1A3.484,3.484,0,0,1,125.465,180.992Zm0,7.012a3.493,3.493,0,0,1-3.471-3.4,3.168,3.168,0,0,0,3.275-.151,2.181,2.181,0,0,1,2.427,0,3.171,3.171,0,0,0,1.216.486A3.49,3.49,0,0,1,125.465,188Z" transform="translate(-121 -180)" fill="#fff"/>
      </g>
    </g>
  </g>
</svg>
